<svg xmlns="http://www.w3.org/2000/svg" xmlns:xlink="http://www.w3.org/1999/xlink" viewBox="0 0 920.91 541.72"><defs><style>.cls-1{fill:none;}.cls-2{clip-path:url(#clip-path);}.cls-3{fill:#4f39e0;}.cls-4{fill:#ffa81d;}.cls-5{fill:#f3f3ff;}.cls-6{fill:#ffd83a;}.cls-7{fill:#cdcdf9;}.cls-8{fill:#899be5;}.cls-9{fill:#adadea;}.cls-10{fill:#a4b1f4;}</style><clipPath id="clip-path" transform="translate(0)"><rect class="cls-1" width="920.91" height="541.7"/></clipPath></defs><g id="Layer_2" data-name="Layer 2"><g id="Layer_1-2" data-name="Layer 1"><g id="ecommerce"><g class="cls-2"><path class="cls-3" d="M51.53,390.62H13.86a1.54,1.54,0,1,1,0-3.08H51.53a1.54,1.54,0,1,1,0,3.08Z" transform="translate(0)"/><path class="cls-3" d="M66.59,390.62H57.18a1.54,1.54,0,1,1,0-3.08h9.41a1.54,1.54,0,1,1,0,3.08Z" transform="translate(0)"/><path class="cls-3" d="M77.1,390.62H71.92a1.54,1.54,0,1,1,0-3.08H77.1a1.54,1.54,0,1,1,0,3.08Z" transform="translate(0)"/><path class="cls-3" d="M724.26,255.39H697.75a1.54,1.54,0,1,1,0-3.08h26.51a1.54,1.54,0,1,1,0,3.08Z" transform="translate(0)"/><path class="cls-3" d="M734.86,255.39h-6.62a1.54,1.54,0,1,1,0-3.08h6.62a1.54,1.54,0,1,1,0,3.08Z" transform="translate(0)"/><path class="cls-3" d="M693.72,255.39h-3.64a1.54,1.54,0,1,1,0-3.08h3.64a1.54,1.54,0,1,1,0,3.08Z" transform="translate(0)"/><path class="cls-3" d="M872.34,422.54H845.48a1.54,1.54,0,1,1,0-3.08h26.86a1.54,1.54,0,1,1,0,3.08Z" transform="translate(0)"/><path class="cls-3" d="M895.63,422.54H881.08a1.54,1.54,0,1,1,0-3.08h14.55a1.54,1.54,0,1,1,0,3.08Z" transform="translate(0)"/><path class="cls-3" d="M414.59,214.73H343.46a1.54,1.54,0,1,1,0-3.08h71.13a1.54,1.54,0,1,1,0,3.08Z" transform="translate(0)"/><path class="cls-3" d="M402,205.58h-7a1.54,1.54,0,1,1,0-3.08h7a1.54,1.54,0,1,1,0,3.08Z" transform="translate(0)"/><path class="cls-3" d="M423.49,205.58H408a1.54,1.54,0,1,1,0-3.08h15.54a1.54,1.54,0,1,1,0,3.08Z" transform="translate(0)"/><path class="cls-3" d="M430.16,129.67H417.92a1.54,1.54,0,1,1,0-3.08h12.24a1.54,1.54,0,1,1,0,3.08Z" transform="translate(0)"/><path class="cls-3" d="M223.28,236.26H211.86a1.54,1.54,0,1,1,0-3.08h11.42a1.54,1.54,0,1,1,0,3.08Z" transform="translate(0)"/><path class="cls-3" d="M291.71,234.65a1.52,1.52,0,0,1-.59-.12,1.41,1.41,0,0,1-.5-.33l-7.46-7.46a1.55,1.55,0,0,1,0-2.18l7.46-7.46a1.41,1.41,0,0,1,.5-.33,1.52,1.52,0,0,1,.59-.12h0a1.52,1.52,0,0,1,.59.12,1.41,1.41,0,0,1,.5.33l7.46,7.46a1.55,1.55,0,0,1,0,2.18l-7.46,7.46a1.41,1.41,0,0,1-.5.33,1.52,1.52,0,0,1-.59.12Zm-5.28-9,5.28,5.29,5.28-5.29-5.28-5.28Z" transform="translate(0)"/><path class="cls-3" d="M170.25,367.29a10.21,10.21,0,0,1-9.43-6.3,10.21,10.21,0,0,1,17.92-9.58,10.21,10.21,0,0,1-8.49,15.88Zm0-17.34a2.95,2.95,0,1,1,0,.05Z" transform="translate(0)"/><path class="cls-3" d="M856.51,359.17a10.21,10.21,0,1,1,7.21-3A10.25,10.25,0,0,1,856.51,359.17Zm0-17.34a7.14,7.14,0,1,0,5,2.09,7.15,7.15,0,0,0-5-2.09Z" transform="translate(0)"/><path class="cls-3" d="M779.52,273.74a6.69,6.69,0,1,1,4.72-2,6.64,6.64,0,0,1-4.72,2Zm0-10.27a3.57,3.57,0,0,0-2,.61,3.64,3.64,0,0,0-1.33,1.62,3.6,3.6,0,0,0-.2,2.08,3.54,3.54,0,0,0,1,1.84,3.6,3.6,0,0,0,1.84,1,3.52,3.52,0,0,0,2.08-.21,3.57,3.57,0,0,0,1.62-1.33,3.64,3.64,0,0,0,.6-2,3.6,3.6,0,0,0-3.6-3.59Z" transform="translate(0)"/><path class="cls-3" d="M119.2,301.17H75.47a1.54,1.54,0,1,1,0-3.08H119.2a1.54,1.54,0,1,1,0,3.08Z" transform="translate(0)"/><path class="cls-4" d="M118.65,278.23H87.8a1.54,1.54,0,1,1,0-3.08h30.85a1.54,1.54,0,1,1,0,3.08Z" transform="translate(0)"/><path class="cls-3" d="M118.65,290.53H107.23a1.54,1.54,0,1,1,0-3.08h11.42a1.54,1.54,0,1,1,0,3.08Z" transform="translate(0)"/><path class="cls-3" d="M100.86,290.53H56.43a1.54,1.54,0,1,1,0-3.08h44.43a1.54,1.54,0,1,1,0,3.08Z" transform="translate(0)"/><path class="cls-3" d="M118.65,267.23H67.86a1.54,1.54,0,1,1,0-3.08h50.8a1.54,1.54,0,1,1,0,3.08Z" transform="translate(0)"/><path class="cls-5" d="M182.52,296.94a5.31,5.31,0,0,1-5.26,5.36H125.64a5.31,5.31,0,0,1-5.26-5.36v-29a5.28,5.28,0,0,1,.38-2,5.54,5.54,0,0,1,1.14-1.73,5.27,5.27,0,0,1,3.74-1.59h51.62a5.27,5.27,0,0,1,3.74,1.59,5.34,5.34,0,0,1,1.13,1.73,5.11,5.11,0,0,1,.39,2Z" transform="translate(0)"/><path class="cls-3" d="M177.26,259.94H125.64a7.9,7.9,0,0,0-3,.63,8,8,0,0,0-2.57,1.74,7.94,7.94,0,0,0-2.28,5.63v29a8,8,0,0,0,7.88,8h51.62a7.94,7.94,0,0,0,7.88-8v-29a7.94,7.94,0,0,0-2.28-5.63,8,8,0,0,0-2.57-1.74,7.9,7.9,0,0,0-3-.63Zm5.26,37a5.31,5.31,0,0,1-5.26,5.36H125.64a5.31,5.31,0,0,1-5.26-5.36v-29a5.28,5.28,0,0,1,.38-2,5.54,5.54,0,0,1,1.14-1.73,5.27,5.27,0,0,1,3.74-1.59h51.62a5.27,5.27,0,0,1,3.74,1.59,5.34,5.34,0,0,1,1.13,1.73,5.11,5.11,0,0,1,.39,2Z" transform="translate(0)"/><path class="cls-3" d="M176.65,269.4a1.3,1.3,0,0,0-1.83-.24l-23.37,18-23.53-18a1.38,1.38,0,0,0-.46-.25,1.31,1.31,0,0,0-.52,0,1.23,1.23,0,0,0-.5.16,1.45,1.45,0,0,0-.4.34,1.32,1.32,0,0,0-.22.48,1.14,1.14,0,0,0,0,.52,1.45,1.45,0,0,0,.18.49,1.31,1.31,0,0,0,.36.38l15.64,12-15.64,12a1.33,1.33,0,0,0-.46.66,1.29,1.29,0,0,0,0,.8,1.25,1.25,0,0,0,.47.64,1.28,1.28,0,0,0,1.56,0l16.2-12.46,6.54,5a1.26,1.26,0,0,0,.79.27,1.35,1.35,0,0,0,.8-.27l6.48-5,16.13,12.45a1.3,1.3,0,0,0,.8.28,1.59,1.59,0,0,0,.56-.14,1.43,1.43,0,0,0,.44-.37,1.53,1.53,0,0,0,.23-.46,1.45,1.45,0,0,0,0-.51,1.41,1.41,0,0,0-.16-.49,1.37,1.37,0,0,0-.34-.38l-15.56-12,15.54-12a1.31,1.31,0,0,0,.48-.85,1.29,1.29,0,0,0-.23-1Z" transform="translate(0)"/><path class="cls-3" d="M351.86,162.69a1.52,1.52,0,0,1-.59-.12,1.46,1.46,0,0,1-.49-.33L343,154.5a1.54,1.54,0,0,1,2.18-2.18l7.74,7.74a1.55,1.55,0,0,1,0,2.18,1.41,1.41,0,0,1-.5.33,1.52,1.52,0,0,1-.59.12Z" transform="translate(0)"/><path class="cls-3" d="M344.13,162.69a1.58,1.58,0,0,1-.86-.26,1.51,1.51,0,0,1-.65-1.58,1.49,1.49,0,0,1,.42-.79l7.75-7.74a1.51,1.51,0,0,1,1.07-.39,1.53,1.53,0,0,1,1.05.45,1.55,1.55,0,0,1,.45,1.05,1.52,1.52,0,0,1-.4,1.07l-7.74,7.74a1.41,1.41,0,0,1-.5.33A1.52,1.52,0,0,1,344.13,162.69Z" transform="translate(0)"/><path class="cls-3" d="M639.43,244.69a1.52,1.52,0,0,1-.59-.12,1.41,1.41,0,0,1-.5-.33l-7.75-7.74a1.54,1.54,0,0,1,2.18-2.18l7.75,7.75a1.41,1.41,0,0,1,.33.5,1.49,1.49,0,0,1,0,1.17,1.41,1.41,0,0,1-.33.5,1.54,1.54,0,0,1-1.09.45Z" transform="translate(0)"/><path class="cls-3" d="M631.68,244.69a1.54,1.54,0,0,1-1.09-.45,1.41,1.41,0,0,1-.33-.5,1.49,1.49,0,0,1,0-1.17,1.41,1.41,0,0,1,.33-.5l7.75-7.75a1.54,1.54,0,0,1,2.18,2.18l-7.75,7.74a1.41,1.41,0,0,1-.5.33,1.52,1.52,0,0,1-.59.12Z" transform="translate(0)"/><path class="cls-3" d="M127.62,345.34a1.43,1.43,0,0,1-.58-.12,1.41,1.41,0,0,1-.5-.33l-7.75-7.75a1.41,1.41,0,0,1-.33-.5,1.51,1.51,0,0,1,0-1.18,1.49,1.49,0,0,1,.83-.83,1.51,1.51,0,0,1,1.18,0,1.41,1.41,0,0,1,.5.33l7.74,7.75a1.55,1.55,0,0,1,0,2.18,1.41,1.41,0,0,1-.5.33A1.52,1.52,0,0,1,127.62,345.34Z" transform="translate(0)"/><path class="cls-3" d="M119.86,345.34a1.58,1.58,0,0,1-.86-.26,1.56,1.56,0,0,1-.65-1.58,1.56,1.56,0,0,1,.42-.79l7.75-7.75a1.51,1.51,0,0,1,1.07-.39,1.54,1.54,0,0,1,1.1,2.57L121,344.89a1.54,1.54,0,0,1-1.09.45Z" transform="translate(0)"/><path class="cls-3" d="M799.13,372.52a1.54,1.54,0,0,1-1.09-.45l-7.74-7.75a1.54,1.54,0,0,1,2.18-2.18l7.74,7.75a1.55,1.55,0,0,1,0,2.18,1.41,1.41,0,0,1-.5.33,1.52,1.52,0,0,1-.59.12Z" transform="translate(0)"/><path class="cls-3" d="M791.39,372.52a1.52,1.52,0,0,1-.59-.12,1.41,1.41,0,0,1-.5-.33,1.55,1.55,0,0,1,0-2.18l7.74-7.75a1.54,1.54,0,0,1,2.18,2.18l-7.74,7.75a1.54,1.54,0,0,1-1.09.45Z" transform="translate(0)"/><path class="cls-3" d="M676.21,176.7a1.52,1.52,0,0,1-.59-.12,1.41,1.41,0,0,1-.5-.33l-7.46-7.46a1.55,1.55,0,0,1,0-2.18l7.46-7.46a1.55,1.55,0,0,1,2.18,0l7.46,7.46a1.55,1.55,0,0,1,0,2.18l-7.46,7.46a1.41,1.41,0,0,1-.5.33,1.52,1.52,0,0,1-.59.12Zm-5.28-9,5.28,5.29,5.28-5.29-5.28-5.28Z" transform="translate(0)"/><path class="cls-6" d="M270.35,145.39c0,12.39-9.74,17.89-13.35,17.89s-13.35-5.57-13.35-17.89a13.35,13.35,0,1,1,26.7,0Z" transform="translate(0)"/><path class="cls-3" d="M257,164.82c-4.1,0-14.89-6-14.89-19.43a14.89,14.89,0,1,1,29.78,0C271.86,158.84,261.1,164.82,257,164.82Zm0-31.54a12.14,12.14,0,0,0-11.81,12.11c0,11.43,9,16.35,11.81,16.35s11.86-4.92,11.86-16.35A12.12,12.12,0,0,0,257,133.28Z" transform="translate(0)"/><path class="cls-3" d="M257,189a1.52,1.52,0,0,1-.59-.12,1.29,1.29,0,0,1-.5-.33,1.43,1.43,0,0,1-.34-.5,1.71,1.71,0,0,1-.11-.59V163.69a1.52,1.52,0,0,1,.12-.59,1.41,1.41,0,0,1,.33-.5,1.56,1.56,0,0,1,.5-.33,1.51,1.51,0,0,1,1.18,0,1.56,1.56,0,0,1,.5.33,1.41,1.41,0,0,1,.33.5,1.52,1.52,0,0,1,.12.59v23.72a1.6,1.6,0,0,1-.1.61,1.45,1.45,0,0,1-.33.51,1.5,1.5,0,0,1-.51.35,1.53,1.53,0,0,1-.6.12Z" transform="translate(0)"/><path class="cls-3" d="M259.3,165.78h-4.81l2.51-2.5Z" transform="translate(0)"/><path class="cls-3" d="M259.31,167.32H254.5a1.52,1.52,0,0,1-1.41-.95,1.48,1.48,0,0,1-.09-.88,1.51,1.51,0,0,1,.41-.79l2.5-2.51a1.5,1.5,0,0,1,.51-.35,1.59,1.59,0,0,1,1.21,0,1.6,1.6,0,0,1,.51.35l2.3,2.5a1.55,1.55,0,0,1,.27,1.66,1.51,1.51,0,0,1-.56.67,1.56,1.56,0,0,1-.84.25Z" transform="translate(0)"/><path class="cls-6" d="M771.35,145.39c0,12.39-9.74,17.89-13.35,17.89s-13.35-5.57-13.35-17.89a13.35,13.35,0,1,1,26.7,0Z" transform="translate(0)"/><path class="cls-3" d="M758,164.82c-4.1,0-14.89-6-14.89-19.43a14.89,14.89,0,1,1,29.78,0C772.86,158.84,762.1,164.82,758,164.82Zm0-31.54a12.14,12.14,0,0,0-11.81,12.11c0,11.43,9,16.35,11.81,16.35s11.86-4.92,11.86-16.35A12.12,12.12,0,0,0,758,133.28Z" transform="translate(0)"/><path class="cls-3" d="M758,189a1.52,1.52,0,0,1-.59-.12,1.29,1.29,0,0,1-.5-.33,1.43,1.43,0,0,1-.34-.5,1.71,1.71,0,0,1-.11-.59V163.69a1.54,1.54,0,1,1,3.08,0v23.72a1.5,1.5,0,0,1-.43,1.12,1.5,1.5,0,0,1-.51.35,1.53,1.53,0,0,1-.6.12Z" transform="translate(0)"/><path class="cls-3" d="M760.3,165.78h-4.81l2.51-2.5Z" transform="translate(0)"/><path class="cls-3" d="M760.31,167.32H755.5a1.52,1.52,0,0,1-1.41-.95,1.48,1.48,0,0,1-.09-.88,1.51,1.51,0,0,1,.41-.79l2.5-2.51a1.6,1.6,0,0,1,.51-.35,1.59,1.59,0,0,1,1.21,0,1.5,1.5,0,0,1,.51.35l2.3,2.5a1.47,1.47,0,0,1,.38.79,1.54,1.54,0,0,1-.1.87,1.61,1.61,0,0,1-.57.67,1.56,1.56,0,0,1-.84.25Z" transform="translate(0)"/><path class="cls-3" d="M674.63,541.7H105a1.54,1.54,0,1,1,0-3.08H674.63a1.54,1.54,0,1,1,0,3.08Z" transform="translate(0)"/><path class="cls-3" d="M61.92,541.7H.8c-1.54-1.36-.6-3.08.74-3.08H61.86a1.59,1.59,0,0,1,1.6,1.5,1.52,1.52,0,0,1-.1.6,1.77,1.77,0,0,1-.33.52,1.57,1.57,0,0,1-.51.34,1.53,1.53,0,0,1-.6.12Z" transform="translate(0)"/><path class="cls-3" d="M92.51,541.7H76a1.54,1.54,0,1,1,0-3.08H92.51a1.54,1.54,0,1,1,0,3.08Z" transform="translate(0)"/><path class="cls-3" d="M703.8,541.7H685.92a1.54,1.54,0,1,1,0-3.08H703.8a1.54,1.54,0,1,1,0,3.08Z" transform="translate(0)"/><path class="cls-3" d="M732.86,541.7H712.47a1.54,1.54,0,1,1,0-3.08h20.39a1.54,1.54,0,1,1,0,3.08Z" transform="translate(0)"/><path class="cls-3" d="M835.86,541.7H740.75a1.54,1.54,0,1,1,0-3.08h95.11a1.54,1.54,0,1,1,0,3.08Z" transform="translate(0)"/><path class="cls-3" d="M919.37,541.7H844.16a1.54,1.54,0,1,1,0-3.08h75.21a1.54,1.54,0,1,1,0,3.08Z" transform="translate(0)"/><path class="cls-5" d="M528.71,319.11H234.49V446.38H528.71Z" transform="translate(0)"/><path class="cls-3" d="M528.71,447.92H234.49a1.54,1.54,0,0,1-1.54-1.54V319.11a1.54,1.54,0,0,1,1.54-1.54H528.71a1.54,1.54,0,0,1,1.54,1.54V446.38a1.54,1.54,0,0,1-1.54,1.54ZM236,444.84H527.17V320.65H236Z" transform="translate(0)"/><path class="cls-6" d="M391.39,425.68a30.22,30.22,0,1,0-38.77-18A30.22,30.22,0,0,0,391.39,425.68Z" transform="translate(0)"/><path class="cls-3" d="M385.11,404.46a3.75,3.75,0,0,0-.92-2.64,8.44,8.44,0,0,0-3.12-1.81,36.57,36.57,0,0,1-3.8-1.64,12,12,0,0,1-2.74-1.88,7.62,7.62,0,0,1-1.78-2.5,8.31,8.31,0,0,1-.64-3.41,7.67,7.67,0,0,1,.51-3A7.58,7.58,0,0,1,374.3,385a9.15,9.15,0,0,1,5.8-2.55v-4.32h3.23v4.38a8.44,8.44,0,0,1,5.6,3,9.83,9.83,0,0,1,2,6.42h-5.84a5.59,5.59,0,0,0-1-3.63,3.36,3.36,0,0,0-1.2-.91,3.29,3.29,0,0,0-1.48-.29,3.36,3.36,0,0,0-1.37.2,3.27,3.27,0,0,0-1.18.72,3.59,3.59,0,0,0-.9,2.6,3.43,3.43,0,0,0,.88,2.46,9.86,9.86,0,0,0,3.31,1.9,37,37,0,0,1,4,1.83,11.62,11.62,0,0,1,2.63,1.94,7.73,7.73,0,0,1,1.64,2.47,8.64,8.64,0,0,1,.56,3.22,7.6,7.6,0,0,1-2.12,5.58,9.42,9.42,0,0,1-5.9,2.52v4h-3.22v-4a9.64,9.64,0,0,1-6.41-2.94,9.44,9.44,0,0,1-2.28-6.64h5.81a5.34,5.34,0,0,0,1.15,3.69,4.17,4.17,0,0,0,3.28,1.29,4,4,0,0,0,2.81-.94,3.26,3.26,0,0,0,.78-1.15,3.38,3.38,0,0,0,.23-1.37Z" transform="translate(0)"/><path class="cls-7" d="M420.16,539.06H343L355,500.61h53.25Z" transform="translate(0)"/><path class="cls-3" d="M420.16,540.6H343a1.5,1.5,0,0,1-.69-.17,1.36,1.36,0,0,1-.55-.46,1.53,1.53,0,0,1-.23-1.37l11.94-38.45a1.52,1.52,0,0,1,.56-.78,1.48,1.48,0,0,1,.91-.3h53.25a1.55,1.55,0,0,1,.91.3,1.62,1.62,0,0,1,.56.78l11.93,38.45a1.56,1.56,0,0,1,.05.71,1.44,1.44,0,0,1-.28.66,1.4,1.4,0,0,1-.54.46,1.57,1.57,0,0,1-.7.17Zm-75-3.08H418.1l-11-35.37h-51Z" transform="translate(0)"/><path class="cls-8" d="M204.52,319.11v15.65a19.36,19.36,0,0,0,19.34,19.36h5.55a19.35,19.35,0,0,0,19.36-19.36V319.11Z" transform="translate(0)"/><path class="cls-3" d="M229.43,355.66h-5.57a20.93,20.93,0,0,1-20.9-20.9V319.11a1.54,1.54,0,0,1,1.54-1.54h44.27a1.54,1.54,0,0,1,1.54,1.54v15.65a20.91,20.91,0,0,1-20.88,20.9Zm-23.37-35v14.11a17.86,17.86,0,0,0,17.8,17.81h5.55a17.82,17.82,0,0,0,17.82-17.82V320.65Z" transform="translate(0)"/><path class="cls-9" d="M248.79,319.11v15.65a19.36,19.36,0,0,0,19.36,19.36h5.55a19.36,19.36,0,0,0,19.36-19.36V319.11Z" transform="translate(0)"/><path class="cls-3" d="M273.7,355.66h-5.55a20.93,20.93,0,0,1-20.9-20.9V319.11a1.54,1.54,0,0,1,1.54-1.54h44.27a1.52,1.52,0,0,1,.59.12,1.49,1.49,0,0,1,.83.83,1.52,1.52,0,0,1,.12.59v15.65a20.93,20.93,0,0,1-20.9,20.9Zm-23.37-35v14.11a17.86,17.86,0,0,0,17.82,17.82h5.55a17.84,17.84,0,0,0,17.82-17.82V320.65Z" transform="translate(0)"/><path class="cls-3" d="M293.06,319.11v15.65a19.36,19.36,0,0,0,19.36,19.36H318a19.36,19.36,0,0,0,19.36-19.36V319.11Z" transform="translate(0)"/><path class="cls-3" d="M318,355.66h-5.55a20.93,20.93,0,0,1-20.9-20.9V319.11a1.54,1.54,0,0,1,1.54-1.54h44.27a1.54,1.54,0,0,1,1.54,1.54v15.65a20.93,20.93,0,0,1-20.9,20.9Zm-23.37-35v14.11a17.86,17.86,0,0,0,17.82,17.82H318a17.86,17.86,0,0,0,17.82-17.82V320.65Z" transform="translate(0)"/><path class="cls-9" d="M337.33,319.11v15.65a19.36,19.36,0,0,0,19.36,19.36h5.55a19.36,19.36,0,0,0,19.36-19.36V319.11Z" transform="translate(0)"/><path class="cls-3" d="M362.24,355.66h-5.55a20.93,20.93,0,0,1-20.9-20.9V319.11a1.54,1.54,0,0,1,1.54-1.54H381.6a1.52,1.52,0,0,1,.59.12,1.49,1.49,0,0,1,.83.83,1.52,1.52,0,0,1,.12.59v15.65a20.93,20.93,0,0,1-20.9,20.9Zm-23.37-35v14.11a17.86,17.86,0,0,0,17.82,17.82h5.55a17.86,17.86,0,0,0,17.82-17.82V320.65Z" transform="translate(0)"/><path class="cls-8" d="M381.6,319.11v15.65A19.36,19.36,0,0,0,401,354.12h5.55a19.36,19.36,0,0,0,19.35-19.36V319.11Z" transform="translate(0)"/><path class="cls-3" d="M406.51,355.66H401a20.93,20.93,0,0,1-20.9-20.9V319.11a1.54,1.54,0,0,1,1.54-1.54h44.26a1.54,1.54,0,0,1,1.54,1.54v15.65a20.91,20.91,0,0,1-20.89,20.9Zm-23.37-35v14.11A17.86,17.86,0,0,0,401,352.59h5.55a17.84,17.84,0,0,0,17.82-17.82V320.65Z" transform="translate(0)"/><path class="cls-9" d="M425.86,319.11v15.65a19.36,19.36,0,0,0,19.36,19.36h5.55a19.36,19.36,0,0,0,19.36-19.36V319.11Z" transform="translate(0)"/><path class="cls-3" d="M450.78,355.66h-5.55a20.93,20.93,0,0,1-20.9-20.9V319.11a1.52,1.52,0,0,1,.12-.59,1.41,1.41,0,0,1,.33-.5,1.56,1.56,0,0,1,.5-.33,1.52,1.52,0,0,1,.59-.12h44.27a1.54,1.54,0,0,1,1.54,1.54v15.65a20.93,20.93,0,0,1-20.9,20.9Zm-23.37-35v14.11a17.86,17.86,0,0,0,17.82,17.82h5.55a17.84,17.84,0,0,0,17.82-17.82V320.65Z" transform="translate(0)"/><path class="cls-3" d="M470.14,319.11v15.65a19.36,19.36,0,0,0,19.36,19.36h5.55a19.36,19.36,0,0,0,19.36-19.36V319.11Z" transform="translate(0)"/><path class="cls-3" d="M495.05,355.66H489.5a20.93,20.93,0,0,1-20.9-20.9V319.11a1.54,1.54,0,0,1,1.54-1.54h44.27a1.54,1.54,0,0,1,1.54,1.54v15.65a20.93,20.93,0,0,1-20.9,20.9Zm-23.37-35v14.11a17.84,17.84,0,0,0,17.82,17.82h5.55a17.84,17.84,0,0,0,17.81-17.83V320.65Z" transform="translate(0)"/><path class="cls-9" d="M514.41,319.11v15.65a19.36,19.36,0,0,0,19.36,19.36h5.55a19.36,19.36,0,0,0,19.36-19.36V319.11Z" transform="translate(0)"/><path class="cls-3" d="M539.32,355.66h-5.55a20.93,20.93,0,0,1-20.9-20.9V319.11a1.54,1.54,0,0,1,1.54-1.54h44.27a1.54,1.54,0,0,1,1.54,1.54v15.65a20.93,20.93,0,0,1-20.9,20.9Zm-23.37-35v14.11a17.84,17.84,0,0,0,17.82,17.82h5.55a17.86,17.86,0,0,0,17.82-17.82V320.65Z" transform="translate(0)"/><path class="cls-7" d="M358.2,257.71l-19.81,61.4H381.6l2.53-61.4Z" transform="translate(0)"/><path class="cls-3" d="M381.6,320.65H338.39a1.57,1.57,0,0,1-.7-.17,1.4,1.4,0,0,1-.54-.46,1.47,1.47,0,0,1-.27-.66,1.59,1.59,0,0,1,.05-.72l19.81-61.4a1.55,1.55,0,0,1,.56-.77,1.51,1.51,0,0,1,.91-.3h25.92a1.38,1.38,0,0,1,.6.13,1.5,1.5,0,0,1,.51.35,1.44,1.44,0,0,1,.33.52,1.57,1.57,0,0,1,.1.61l-2.53,61.4a1.59,1.59,0,0,1-.47,1.05A1.57,1.57,0,0,1,381.6,320.65Zm-41.09-3.08h39.61l2.41-58.32h-23.2Z" transform="translate(0)"/><path class="cls-7" d="M490.37,257.71H463.81l50.59,61.4h44.27Z" transform="translate(0)"/><path class="cls-3" d="M558.68,320.65H514.41a1.66,1.66,0,0,1-.66-.14,1.46,1.46,0,0,1-.53-.42l-50.59-61.4a1.56,1.56,0,0,1-.21-1.64,1.67,1.67,0,0,1,.57-.64,1.54,1.54,0,0,1,.83-.24h26.56a1.54,1.54,0,0,1,1,.4l68.3,61.4a1.5,1.5,0,0,1,.47.78,1.46,1.46,0,0,1,0,.9,1.47,1.47,0,0,1-.55.72,1.53,1.53,0,0,1-.87.28Zm-43.54-3.08h39.52l-64.87-58.32H467.08Z" transform="translate(0)"/><path class="cls-7" d="M303.81,257.71l-56.08,61.4h45.33L331,257.71Z" transform="translate(0)"/><path class="cls-3" d="M293.06,320.65H247.73a1.54,1.54,0,0,1-1.41-.92,1.52,1.52,0,0,1-.11-.87,1.56,1.56,0,0,1,.39-.78l56.07-61.41a1.59,1.59,0,0,1,.52-.37,1.47,1.47,0,0,1,.62-.13H331a1.57,1.57,0,0,1,1.34,2.35l-38,61.4a1.48,1.48,0,0,1-.57.54,1.49,1.49,0,0,1-.77.19Zm-41.84-3.08h41l36-58.32H304.49Z" transform="translate(0)"/><path class="cls-10" d="M277.88,257.71l-73.36,61.4h43.21l56.08-61.4Z" transform="translate(0)"/><path class="cls-3" d="M247.73,320.65H204.52a1.53,1.53,0,0,1-1.46-1,1.64,1.64,0,0,1,0-.93,1.55,1.55,0,0,1,.5-.78l73.34-61.4a1.52,1.52,0,0,1,1-.36h26a1.56,1.56,0,0,1,.84.25,1.49,1.49,0,0,1,.57.67,1.52,1.52,0,0,1,.11.87,1.47,1.47,0,0,1-.38.79l-56.14,61.4a1.55,1.55,0,0,1-.51.37,1.5,1.5,0,0,1-.62.13Zm-39-3.08H247l53.27-58.32H278.44Z" transform="translate(0)"/><path class="cls-3" d="M331,257.71l-37.94,61.4h45.33l19.81-61.4Z" transform="translate(0)"/><path class="cls-3" d="M338.39,320.65H293.06a1.57,1.57,0,0,1-1.34-2.35l37.95-61.4a1.61,1.61,0,0,1,.56-.54,1.64,1.64,0,0,1,.75-.19h27.2a1.55,1.55,0,0,1,1.51,1.29,1.55,1.55,0,0,1-.05.71l-19.78,61.42a1.53,1.53,0,0,1-1.47,1.06Zm-42.53-3.08H337.3l18.82-58.32H331.86Z" transform="translate(0)"/><path class="cls-10" d="M384.13,257.71l-2.53,61.4h44.27l-15.18-61.4Z" transform="translate(0)"/><path class="cls-3" d="M425.86,320.65H381.6a1.53,1.53,0,0,1-.6-.12,1.5,1.5,0,0,1-.51-.35,1.54,1.54,0,0,1-.43-1.13l2.53-61.4a1.59,1.59,0,0,1,.47-1,1.58,1.58,0,0,1,1.07-.43h26.56a1.5,1.5,0,0,1,.95.33,1.54,1.54,0,0,1,.55.84l15.18,61.4a1.78,1.78,0,0,1,0,.69,1.6,1.6,0,0,1-.3.63,1.44,1.44,0,0,1-.54.44,1.57,1.57,0,0,1-.68.15Zm-42.66-3.08h40.66l-14.41-58.32H385.61Z" transform="translate(0)"/><path class="cls-3" d="M437.25,257.71l32.88,61.4H514.4l-50.59-61.4Z" transform="translate(0)"/><path class="cls-3" d="M514.41,320.65H470.14a1.47,1.47,0,0,1-.79-.22,1.54,1.54,0,0,1-.57-.59l-32.92-61.4a1.48,1.48,0,0,1-.18-.77,1.54,1.54,0,0,1,.21-.75,1.58,1.58,0,0,1,.57-.55,1.54,1.54,0,0,1,.76-.2h26.64a1.52,1.52,0,0,1,.66.15,1.76,1.76,0,0,1,.53.41l50.59,61.4a1.56,1.56,0,0,1,.34.79,1.48,1.48,0,0,1-.14.85,1.51,1.51,0,0,1-.56.64,1.54,1.54,0,0,1-.83.24Zm-43.35-3.08h40.09l-48.06-58.32H439.86Z" transform="translate(0)"/><path class="cls-7" d="M410.69,257.71l15.18,61.4h44.26l-32.88-61.4Z" transform="translate(0)"/><path class="cls-3" d="M470.14,320.65H425.86a1.5,1.5,0,0,1-.95-.33,1.52,1.52,0,0,1-.54-.84l-15.18-61.4a1.61,1.61,0,0,1,0-.69,1.65,1.65,0,0,1,.29-.63,1.52,1.52,0,0,1,.54-.43,1.57,1.57,0,0,1,.67-.16h26.58a1.47,1.47,0,0,1,.79.22,1.45,1.45,0,0,1,.56.59l32.89,61.41a1.55,1.55,0,0,1,.18.76,1.49,1.49,0,0,1-.22.75,1.53,1.53,0,0,1-1.32.75Zm-43.06-3.08h40.49l-31.24-58.32H412.66Z" transform="translate(0)"/><path class="cls-5" d="M234.49,479.85a20.75,20.75,0,0,0,20.76,20.76H508a20.76,20.76,0,0,0,20.75-20.76V446.38H234.49Z" transform="translate(0)"/><path class="cls-3" d="M508,502.15H255.25a22.33,22.33,0,0,1-22.3-22.3V446.38a1.54,1.54,0,0,1,1.54-1.54H528.71a1.54,1.54,0,0,1,1.54,1.54v33.47A22.31,22.31,0,0,1,508,502.15ZM236,447.92v31.93a19.24,19.24,0,0,0,19.22,19.22H508a19.24,19.24,0,0,0,19.21-19.22V447.92Z" transform="translate(0)"/><path class="cls-10" d="M392,473.5a10.33,10.33,0,0,1-6.39,9.56,10.35,10.35,0,0,1-9.71-18.17A10.35,10.35,0,0,1,392,473.5Z" transform="translate(0)"/><path class="cls-3" d="M381.6,485.39a11.89,11.89,0,0,1-2.32-23.55,11.79,11.79,0,0,1,6.87.68,11.89,11.89,0,0,1-4.55,22.87Zm0-20.7a8.81,8.81,0,1,0,6.23,2.58A8.84,8.84,0,0,0,381.6,464.69Z" transform="translate(0)"/><path class="cls-6" d="M386.65,473.5a5.05,5.05,0,1,1-9.72-1.87,5.07,5.07,0,0,1,4.67-3.13,5.05,5.05,0,0,1,5,5Z" transform="translate(0)"/><path class="cls-6" d="M381.6,480.09a6.59,6.59,0,0,1-6.09-4.07,6.59,6.59,0,0,1,11.57-6.18,6.59,6.59,0,0,1-5.48,10.25Zm0-10.1a3.57,3.57,0,0,0-2,.59,3.49,3.49,0,0,0-1.29,1.58,3.41,3.41,0,0,0-.2,2,3.5,3.5,0,0,0,2.76,2.76,3.41,3.41,0,0,0,2-.2,3.49,3.49,0,0,0,1.58-1.29,3.57,3.57,0,0,0,.59-1.95,3.5,3.5,0,0,0-3.51-3.5Z" transform="translate(0)"/><path class="cls-5" d="M335.7,365.13H255.16V420H335.7Z" transform="translate(0)"/><path class="cls-3" d="M335.7,421.5H255.16a1.54,1.54,0,0,1-1.54-1.54V365.13a1.54,1.54,0,0,1,1.54-1.54H335.7a1.54,1.54,0,0,1,1.54,1.54V420a1.55,1.55,0,0,1-1.54,1.5Zm-79-3.08h77.46V366.67H256.7Z" transform="translate(0)"/><path class="cls-5" d="M272.86,371a11.27,11.27,0,0,1,3.8-.05,11.08,11.08,0,0,1,9.2,12.68L283.09,401l-1.66,10.24-.14.85a2,2,0,0,1-.27.74,2.25,2.25,0,0,1-.53.58,2.12,2.12,0,0,1-.72.32,2,2,0,0,1-.78,0l-17.9-2.85a2,2,0,0,1-.74-.27,2.25,2.25,0,0,1-.58-.53,2.16,2.16,0,0,1-.32-.71,2.1,2.1,0,0,1,0-.79l.14-.85,1.67-10.25L264,380.15a11.11,11.11,0,0,1,3-6,11,11,0,0,1,5.88-3.17" transform="translate(0)"/><path class="cls-3" d="M279.27,415.26h-.56l-17.85-2.89a3.62,3.62,0,0,1-1.31-.47,3.44,3.44,0,0,1-1-.94,3.71,3.71,0,0,1-.6-1.27,3.61,3.61,0,0,1-.06-1.39l.14-.84,1.67-10.25,2.76-17.35a12.61,12.61,0,0,1,24.91,4l-2.76,17.35-1.81,11.09a3.55,3.55,0,0,1-3.5,3Zm-4.4-43a9.46,9.46,0,0,0-1.76.17h0a9.56,9.56,0,0,0-7.64,7.87l-2.76,17.35-1.85,11.14a.54.54,0,0,0,.09.35.46.46,0,0,0,.3.19l17.91,2.85a.45.45,0,0,0,.35-.09.49.49,0,0,0,.18-.3l.14-.85,1.67-10.25,2.76-17.34a9.54,9.54,0,0,0-7.92-10.92,9.14,9.14,0,0,0-1.48-.12Z" transform="translate(0)"/><path class="cls-3" d="M272.39,387.85a.77.77,0,0,0,.37,0,.92.92,0,0,0,.32-.18,3.82,3.82,0,0,0,.65-1,6.71,6.71,0,0,1,.7-1.14,2.07,2.07,0,0,1,.86-.77,2,2,0,0,1,1.14-.16,1.74,1.74,0,0,1,1,.5,2.27,2.27,0,0,1,.56,1.06,3.4,3.4,0,0,1,0,1.42,3.31,3.31,0,0,1-.5,1.33,2.21,2.21,0,0,1-.94.8,2.09,2.09,0,0,1-1.21.15l.24-1.48a.89.89,0,0,0,.43,0,.93.93,0,0,0,.39-.18,1.26,1.26,0,0,0,.42-.83,1.33,1.33,0,0,0-.09-.88.67.67,0,0,0-.23-.27.79.79,0,0,0-.33-.13.6.6,0,0,0-.35,0,.68.68,0,0,0-.29.21,4,4,0,0,0-.62,1,4.63,4.63,0,0,1-1.25,1.69,1.88,1.88,0,0,1-1.5.34,1.78,1.78,0,0,1-.79-.3,1.71,1.71,0,0,1-.55-.64,3.13,3.13,0,0,1-.22-2,3.51,3.51,0,0,1,.55-1.46,2.44,2.44,0,0,1,1-.91,2.2,2.2,0,0,1,1.29-.15l-.25,1.48c-.79-.13-1.27.28-1.42,1.23a1.34,1.34,0,0,0,.08.86.78.78,0,0,0,.22.26.8.8,0,0,0,.32.13Z" transform="translate(0)"/><path class="cls-3" d="M270.86,394.33l.43-2.6-1.4-.74.26-1.57,6.75,3.86-.22,1.37L269,396.16l.26-1.57Zm1.57-2-.3,1.8,2.84-.46Z" transform="translate(0)"/><path class="cls-3" d="M269.92,398.51l-.52,3.15-1.19-.2.76-4.63,7.19,1.17-.24,1.48Z" transform="translate(0)"/><path class="cls-3" d="M270.48,407.16l.47-2.85L269,404l-.55,3.34-1.19-.19.8-4.83,7.19,1.19-.79,4.81-1.2-.2.55-3.33-1.72-.28-.47,2.85Z" transform="translate(0)"/><path class="cls-3" d="M275.86,375.7h-.46a3,3,0,0,0-2.94,3.17,2.94,2.94,0,0,0,2.47,2.68h.47a3,3,0,0,0,3-2.71,2.94,2.94,0,0,0-2.52-3.14Z" transform="translate(0)"/><path class="cls-10" d="M249.42,389.47,250,389l5.3-3.85,8.82-6.4-4.3,27.06a1.92,1.92,0,0,1-.74-.22,1.81,1.81,0,0,1-.58-.52L249,392a1.9,1.9,0,0,1-.31-.64,2.11,2.11,0,0,1,0-.71,1.75,1.75,0,0,1,.74-1.18Z" transform="translate(0)"/><path class="cls-3" d="M259.86,407.37h-.12a3.16,3.16,0,0,1-1.37-.41,3.29,3.29,0,0,1-1.07-1l-9.52-13.11a3.33,3.33,0,0,1-.59-2.48,3.27,3.27,0,0,1,1.33-2.18h0l14.75-10.69a1.5,1.5,0,0,1,.84-.3,1.55,1.55,0,0,1,.87.22,1.55,1.55,0,0,1,.71,1.56l-4.31,27.06a1.52,1.52,0,0,1-.53.92,1.5,1.5,0,0,1-1,.37Zm-9.53-16.66a.27.27,0,0,0-.1.17.26.26,0,0,0,0,.19l8.51,11.73,3.29-20.6Z" transform="translate(0)"/><path class="cls-3" d="M274.86,380.05h-.43a1.55,1.55,0,0,1-1-1.68,1.53,1.53,0,0,1,.5-.93,1.5,1.5,0,0,1,1-.39c.56-.2,2.16-2.38,2.83-6.62.75-4.68.51-6.78-.83-7.23-.52-.17-1,.09-1.89,1a1.49,1.49,0,0,1-.49.34,1.53,1.53,0,0,1-.59.13,1.66,1.66,0,0,1-.59-.1,1.72,1.72,0,0,1-.51-.33,1.49,1.49,0,0,1-.34-.49,1.53,1.53,0,0,1-.13-.59,1.7,1.7,0,0,1,.1-.59,1.72,1.72,0,0,1,.33-.51c.7-.72,2.55-2.63,5.09-1.78,4.35,1.47,3.44,7.21,2.89,10.63a18.85,18.85,0,0,1-2.07,6.33C277.31,379.57,275.86,380.05,274.86,380.05Z" transform="translate(0)"/><path class="cls-10" d="M439.71,536.94a3.53,3.53,0,0,1-3.78,3.22H326a3.24,3.24,0,1,1,0-6.45H435.93a3.48,3.48,0,0,1,2.55.84,3.52,3.52,0,0,1,1.23,2.39Z" transform="translate(0)"/><path class="cls-3" d="M435.93,541.7H326a4.75,4.75,0,0,1-2-.21,4.89,4.89,0,0,1-1.72-1,5.05,5.05,0,0,1-1.17-1.61,4.82,4.82,0,0,1,0-3.89,5.05,5.05,0,0,1,1.17-1.61,4.89,4.89,0,0,1,1.72-1,4.75,4.75,0,0,1,2-.21H435.93a4.75,4.75,0,0,1,2,.21,4.8,4.8,0,0,1,1.72,1A4.9,4.9,0,0,1,440.8,535a4.82,4.82,0,0,1,0,3.89,4.9,4.9,0,0,1-1.17,1.61,4.8,4.8,0,0,1-1.72,1,4.75,4.75,0,0,1-2,.21ZM326,535.25c-1.21,0-2.24.77-2.24,1.69s1,1.68,2.24,1.68H435.93c1.22,0,2.24-.77,2.24-1.68a2,2,0,0,0-2.24-1.69Z" transform="translate(0)"/><path class="cls-3" d="M507.86,398.4h-82.1a1.54,1.54,0,1,1,0-3.08h82.1a1.54,1.54,0,1,1,0,3.08Z" transform="translate(0)"/><path class="cls-6" d="M455.86,406h-30.1a1.54,1.54,0,1,1,0-3.08h30.1a1.54,1.54,0,1,1,0,3.08Z" transform="translate(0)"/><path class="cls-10" d="M507.86,406H466a1.54,1.54,0,1,1,0-3.08h41.88a1.54,1.54,0,1,1,0,3.08Z" transform="translate(0)"/><path class="cls-10" d="M507.86,431.32H477.71a1.54,1.54,0,1,1,0-3.08h30.15a1.54,1.54,0,1,1,0,3.08Z" transform="translate(0)"/><path class="cls-3" d="M467.62,431.32H425.76a1.54,1.54,0,1,1,0-3.08h41.86a1.54,1.54,0,1,1,0,3.08Z" transform="translate(0)"/><path class="cls-6" d="M507.86,414.23H482.58a1.54,1.54,0,1,1,0-3.08h25.28a1.54,1.54,0,1,1,0,3.08Z" transform="translate(0)"/><path class="cls-3" d="M471.86,414.23h-46.1a1.54,1.54,0,1,1,0-3.08h46.1a1.54,1.54,0,1,1,0,3.08Z" transform="translate(0)"/><path class="cls-3" d="M507.86,422.54h-20a1.54,1.54,0,1,1,0-3.08h20a1.54,1.54,0,1,1,0,3.08Z" transform="translate(0)"/><path class="cls-10" d="M478.15,422.54h-20a1.54,1.54,0,1,1,0-3.08h20a1.54,1.54,0,1,1,0,3.08Z" transform="translate(0)"/><path class="cls-6" d="M447.94,422.54H425.76a1.54,1.54,0,1,1,0-3.08h22.18a1.54,1.54,0,1,1,0,3.08Z" transform="translate(0)"/><path class="cls-3" d="M507.83,365.13H424.59v8.13h83.24Z" transform="translate(0)"/><path class="cls-10" d="M448.67,377.08H424.59v8.13h24.08Z" transform="translate(0)"/><path class="cls-9" d="M478.25,377.08H454.17v8.13h24.08Z" transform="translate(0)"/><path class="cls-3" d="M507.83,377.08H483.75v8.13h24.08Z" transform="translate(0)"/><path class="cls-3" d="M335.7,431.32H316a1.54,1.54,0,1,1,0-3.08H335.7a1.54,1.54,0,1,1,0,3.08Z" transform="translate(0)"/><path class="cls-6" d="M306.49,431.32H286.86a1.54,1.54,0,1,1,0-3.08h19.66a1.54,1.54,0,1,1,0,3.08Z" transform="translate(0)"/><path class="cls-3" d="M276.77,431.32H255a1.54,1.54,0,1,1,0-3.08h21.82a1.54,1.54,0,1,1,0,3.08Z" transform="translate(0)"/><path class="cls-3" d="M290,407.31a3.08,3.08,0,0,0,.23,1.16,3.06,3.06,0,0,0,1.66,1.63,2.92,2.92,0,0,0,1.17.21l25.6-.12a3.08,3.08,0,0,0,1.16-.23,3.06,3.06,0,0,0,1.63-1.66,2.92,2.92,0,0,0,.21-1.17l-4.09-26.79h-3.83V380a8.06,8.06,0,1,0-16.12.08v.32h-4.24Zm9.45-26.86v-.32a6.28,6.28,0,0,1,6.24-6.3,6.27,6.27,0,0,1,6.3,6.24v.32Z" transform="translate(0)"/><path class="cls-6" d="M303.43,411.48a2.27,2.27,0,0,0,2.28,2.25l19-.09a2.29,2.29,0,0,0,2.25-2.28l-3-19.89h-2.84v-.23a6,6,0,0,0-12,0v.24H306Zm7-19.94v-.24a4.66,4.66,0,0,1,9.31,0v.24Z" transform="translate(0)"/><path class="cls-3" d="M480.09,259.25a1.54,1.54,0,0,1-1.54-1.54V139a34.69,34.69,0,0,1,69.37,0v56.2a31.6,31.6,0,0,0,63.2,0V85.54a1.54,1.54,0,1,1,3.08,0V195.21a34.68,34.68,0,0,1-69.36,0V139a31.61,31.61,0,0,0-63.21,0V257.7a1.71,1.71,0,0,1-.11.59,1.57,1.57,0,0,1-.34.51,1.56,1.56,0,0,1-.5.33,1.52,1.52,0,0,1-.59.12Z" transform="translate(0)"/><path class="cls-5" d="M546.73,189.25a15.89,15.89,0,1,0-15.89-15.89A15.88,15.88,0,0,0,546.73,189.25Z" transform="translate(0)"/><path class="cls-3" d="M546.74,190.79a17.45,17.45,0,1,1,12.31-5.11,17.49,17.49,0,0,1-12.31,5.11Zm0-31.77a14.32,14.32,0,1,0,10.14,4.19A14.38,14.38,0,0,0,546.74,159Z" transform="translate(0)"/><path class="cls-6" d="M548.74,176.85a1.79,1.79,0,0,0-.45-1.29,4.11,4.11,0,0,0-1.53-.88,16.88,16.88,0,0,1-1.86-.81,5.54,5.54,0,0,1-1.33-.92,3.41,3.41,0,0,1-.87-1.22,4,4,0,0,1-.31-1.67,3.67,3.67,0,0,1,.25-1.47,3.73,3.73,0,0,1,.81-1.26,4.53,4.53,0,0,1,2.84-1.25V164h1.57v2.14a4.1,4.1,0,0,1,2.73,1.46,4.82,4.82,0,0,1,1,3.14h-2.85a2.82,2.82,0,0,0-.49-1.78,1.65,1.65,0,0,0-1.31-.58,1.76,1.76,0,0,0-.68.1,1.58,1.58,0,0,0-.58.35,1.78,1.78,0,0,0-.44,1.27,1.73,1.73,0,0,0,.43,1.21,5,5,0,0,0,1.62.93,15.44,15.44,0,0,1,1.94.89,5.44,5.44,0,0,1,1.29,1,3.92,3.92,0,0,1,.8,1.21,4.19,4.19,0,0,1,.27,1.57,3.86,3.86,0,0,1-.22,1.47,3.75,3.75,0,0,1-.78,1.26,4.59,4.59,0,0,1-2.89,1.23v2h-1.57v-2a4.78,4.78,0,0,1-3.14-1.43,4.65,4.65,0,0,1-1.11-3.25h2.86a2.55,2.55,0,0,0,.56,1.8,1.94,1.94,0,0,0,.73.5,2.14,2.14,0,0,0,.87.13,2,2,0,0,0,1.37-.46,1.5,1.5,0,0,0,.38-.58A1.56,1.56,0,0,0,548.74,176.85Z" transform="translate(0)"/><path class="cls-5" d="M499.74,223.6a18.8,18.8,0,1,1-5.51-13.28A18.81,18.81,0,0,1,499.74,223.6Z" transform="translate(0)"/><path class="cls-3" d="M481,243.93a20.35,20.35,0,1,1,14.37-6,20.32,20.32,0,0,1-14.37,6Zm0-37.57a17.26,17.26,0,1,0,12.19,5,17.25,17.25,0,0,0-12.19-5Z" transform="translate(0)"/><path class="cls-6" d="M483.32,227.73a2.15,2.15,0,0,0-.54-1.53,4.84,4.84,0,0,0-1.8-1c-.75-.28-1.48-.6-2.2-.95a7.17,7.17,0,0,1-1.58-1.09,4.34,4.34,0,0,1-1-1.44,4.9,4.9,0,0,1-.37-2,4.36,4.36,0,0,1,.3-1.75,4.42,4.42,0,0,1,1-1.48,5.26,5.26,0,0,1,3.35-1.48v-2.5h1.87V215a4.91,4.91,0,0,1,3.24,1.72,5.7,5.7,0,0,1,1.16,3.71h-3.37a3.26,3.26,0,0,0-.58-2.1,1.87,1.87,0,0,0-1.55-.69,1.84,1.84,0,0,0-.8.12,1.93,1.93,0,0,0-.68.42,2.07,2.07,0,0,0-.53,1.5,2,2,0,0,0,.52,1.43,5.71,5.71,0,0,0,1.91,1.1,21.15,21.15,0,0,1,2.29,1,6.46,6.46,0,0,1,1.52,1.13,4.57,4.57,0,0,1,1,1.42,5.18,5.18,0,0,1,.32,1.87,4.34,4.34,0,0,1-.29,1.74,4.44,4.44,0,0,1-.94,1.48,5.47,5.47,0,0,1-3.42,1.46v2.33h-1.85V232.4a5.61,5.61,0,0,1-3.71-1.7,5.45,5.45,0,0,1-1.32-3.84h3.38a3.12,3.12,0,0,0,.66,2.14,2.46,2.46,0,0,0,.87.58,2.42,2.42,0,0,0,1,.16,2.32,2.32,0,0,0,1.62-.54,2,2,0,0,0,.42-.68,1.91,1.91,0,0,0,.1-.79Z" transform="translate(0)"/><path class="cls-5" d="M626.36,127.84a14.45,14.45,0,1,1-14.5-14.46,14.45,14.45,0,0,1,10.25,4.22,14.39,14.39,0,0,1,3.15,4.7,14.6,14.6,0,0,1,1.1,5.54Z" transform="translate(0)"/><path class="cls-3" d="M611.86,143.83a16,16,0,1,1,11.31-4.69A16,16,0,0,1,611.86,143.83Zm0-28.91a12.91,12.91,0,0,0-12.58,15.49,12.81,12.81,0,0,0,3.55,6.59,12.92,12.92,0,1,0,9-22.08Z" transform="translate(0)"/><path class="cls-6" d="M613.73,131a1.66,1.66,0,0,0-.41-1.17,3.72,3.72,0,0,0-1.39-.8,14.91,14.91,0,0,1-1.69-.74,5.59,5.59,0,0,1-1.22-.83,3.36,3.36,0,0,1-.79-1.11,3.6,3.6,0,0,1-.28-1.52,3.29,3.29,0,0,1,.24-1.35,3.26,3.26,0,0,1,.76-1.14,4,4,0,0,1,2.58-1.13v-1.93H613v2a3.74,3.74,0,0,1,2.49,1.33,4.3,4.3,0,0,1,.9,2.85h-2.59a2.5,2.5,0,0,0-.45-1.61,1.41,1.41,0,0,0-.53-.41,1.5,1.5,0,0,0-.66-.13,1.56,1.56,0,0,0-.61.09,1.53,1.53,0,0,0-.53.33,1.6,1.6,0,0,0-.41,1.16,1.52,1.52,0,0,0,.4,1.09,4.25,4.25,0,0,0,1.47.85,18.67,18.67,0,0,1,1.76.81,4.75,4.75,0,0,1,1.17.87,3.37,3.37,0,0,1,.73,1.09,3.74,3.74,0,0,1,.25,1.44,3.35,3.35,0,0,1-1,2.48,4.18,4.18,0,0,1-2.63,1.12v1.79H611.3V134.6a4.33,4.33,0,0,1-2.86-1.31,4.19,4.19,0,0,1-1-2.95H610a2.38,2.38,0,0,0,.51,1.64,1.73,1.73,0,0,0,.67.45,1.77,1.77,0,0,0,.79.12,1.84,1.84,0,0,0,1.25-.42,1.53,1.53,0,0,0,.36-.51,1.48,1.48,0,0,0,.11-.62Z" transform="translate(0)"/><path class="cls-5" d="M793.68,1.54H439.57a42,42,0,1,0,0,84H793.68a42,42,0,1,0,0-84Z" transform="translate(0)"/><path class="cls-3" d="M793.68,87.08H439.57a43.54,43.54,0,1,1,0-87.08H793.68a43.54,43.54,0,1,1,0,87.08Zm-354.11-84a40.46,40.46,0,1,0,0,80.92H793.68a40.46,40.46,0,1,0,0-80.92Z" transform="translate(0)"/><path class="cls-6" d="M573,76.75H548.12a1.54,1.54,0,1,1,0-3.08H573a1.54,1.54,0,1,1,0,3.08Z" transform="translate(0)"/><path class="cls-6" d="M779.12,76.75H596.78a1.54,1.54,0,1,1,0-3.08H779.12a1.54,1.54,0,1,1,0,3.08Z" transform="translate(0)"/><path class="cls-6" d="M656.27,12.62H460.56a1.52,1.52,0,0,1-.59-.12,1.49,1.49,0,0,1-.83-.83,1.51,1.51,0,0,1,0-1.18,1.49,1.49,0,0,1,.83-.83,1.52,1.52,0,0,1,.59-.12H656.27a1.52,1.52,0,0,1,.59.12,1.41,1.41,0,0,1,.5.33,1.56,1.56,0,0,1,.33.5,1.51,1.51,0,0,1,0,1.18,1.56,1.56,0,0,1-.33.5,1.41,1.41,0,0,1-.5.33,1.52,1.52,0,0,1-.59.12Z" transform="translate(0)"/><path class="cls-6" d="M702.38,12.62H676.61a1.52,1.52,0,0,1-.59-.12,1.41,1.41,0,0,1-.5-.33,1.56,1.56,0,0,1-.33-.5,1.51,1.51,0,0,1,0-1.18,1.56,1.56,0,0,1,.33-.5,1.41,1.41,0,0,1,.5-.33,1.52,1.52,0,0,1,.59-.12h25.77a1.52,1.52,0,0,1,.59.12,1.49,1.49,0,0,1,.83.83,1.51,1.51,0,0,1,0,1.18,1.49,1.49,0,0,1-.83.83,1.52,1.52,0,0,1-.59.12Z" transform="translate(0)"/><path class="cls-5" d="M217.94,383.87H139.63a9.58,9.58,0,0,0-9.58,9.58v136a9.58,9.58,0,0,0,9.58,9.58h78.31a9.58,9.58,0,0,0,9.58-9.58v-136A9.58,9.58,0,0,0,217.94,383.87Z" transform="translate(0)"/><path class="cls-3" d="M217.94,540.6H139.63a11.13,11.13,0,0,1-11.12-11.12v-136a11.13,11.13,0,0,1,11.12-11.12h78.31a11.13,11.13,0,0,1,11.12,11.12v136a11.13,11.13,0,0,1-11.12,11.12ZM139.63,385.41a8.06,8.06,0,0,0-8,8v136a8.06,8.06,0,0,0,8,8h78.31a8.06,8.06,0,0,0,8-8v-136a8.06,8.06,0,0,0-8-8Z" transform="translate(0)"/><path class="cls-5" d="M217.72,398.1H139.85V516.37h77.87Z" transform="translate(0)"/><path class="cls-3" d="M217.72,517.91H139.86a1.54,1.54,0,0,1-1.54-1.54V398.1a1.54,1.54,0,0,1,1.54-1.54h77.87a1.54,1.54,0,0,1,1.54,1.54V516.37a1.52,1.52,0,0,1-.12.59,1.56,1.56,0,0,1-.33.5,1.57,1.57,0,0,1-.51.34,1.71,1.71,0,0,1-.59.11Zm-76.33-3.08h74.79V399.64H141.39Z" transform="translate(0)"/><path class="cls-10" d="M185.06,527.86a6.28,6.28,0,1,1-1.84-4.44,6.28,6.28,0,0,1,1.84,4.44Z" transform="translate(0)"/><path class="cls-3" d="M178.78,535.67a7.84,7.84,0,1,1,5.52-2.29,7.84,7.84,0,0,1-5.52,2.29Zm0-12.55a4.74,4.74,0,0,0-4.65,5.66,4.76,4.76,0,0,0,3.72,3.73,4.74,4.74,0,1,0,.93-9.39Z" transform="translate(0)"/><path class="cls-7" d="M148.6,420H118.43l25-21.89h18.11Z" transform="translate(0)"/><path class="cls-3" d="M148.61,421.53H118.43a1.55,1.55,0,0,1-1.48-1.92,1.56,1.56,0,0,1,.48-.78l25-21.89a1.54,1.54,0,0,1,1-.38h18.11a1.49,1.49,0,0,1,.77.21,1.53,1.53,0,0,1,.57.56,1.65,1.65,0,0,1,.2.78,1.49,1.49,0,0,1-.21.77l-12.94,21.89a1.58,1.58,0,0,1-.56.56,1.54,1.54,0,0,1-.76.2Zm-26.08-3.08h25.2l11.13-18.81H144Z" transform="translate(0)"/><path class="cls-7" d="M239.13,420H209L197.75,398.1h18.1Z" transform="translate(0)"/><path class="cls-3" d="M239.14,421.53H209a1.67,1.67,0,0,1-.81-.22,1.59,1.59,0,0,1-.56-.62L196.38,398.8a1.54,1.54,0,0,1-.17-.76,1.5,1.5,0,0,1,.23-.74,1.55,1.55,0,0,1,1.31-.74h18.11a1.57,1.57,0,0,1,1,.41l23.28,21.9a1.52,1.52,0,0,1,.38,1.68,1.56,1.56,0,0,1-1.43,1Zm-29.28-3.08h25.35l-20-18.81h-15Z" transform="translate(0)"/><path class="cls-3" d="M178.78,420H148.6l12.94-21.89h18.1Z" transform="translate(0)"/><path class="cls-3" d="M178.78,421.53H148.61a1.49,1.49,0,0,1-.77-.21,1.53,1.53,0,0,1-.57-.56,1.65,1.65,0,0,1-.2-.78,1.49,1.49,0,0,1,.21-.77l12.93-21.9a1.51,1.51,0,0,1,.57-.55,1.54,1.54,0,0,1,.76-.2h18.11a1.53,1.53,0,0,1,.6.12,1.5,1.5,0,0,1,.51.35,1.77,1.77,0,0,1,.33.52,1.6,1.6,0,0,1,.1.61l-.87,21.89a1.59,1.59,0,0,1-.47,1.05A1.53,1.53,0,0,1,178.78,421.53Zm-27.47-3.08h26l.74-18.81H162.42Z" transform="translate(0)"/><path class="cls-10" d="M209,420H178.78l.86-21.89h18.11Z" transform="translate(0)"/><path class="cls-3" d="M209,421.53H178.78a1.53,1.53,0,0,1-.6-.12,1.6,1.6,0,0,1-.51-.35,1.77,1.77,0,0,1-.33-.52,1.59,1.59,0,0,1-.09-.61l.86-21.89a1.55,1.55,0,0,1,.47-1.05,1.53,1.53,0,0,1,1.07-.43h18.1a1.53,1.53,0,0,1,1.37.83l11.21,21.9a1.54,1.54,0,0,1,.17.76,1.5,1.5,0,0,1-.23.74,1.55,1.55,0,0,1-1.31.74Zm-28.57-3.08h26.05l-9.58-18.81H181.13Z" transform="translate(0)"/><path class="cls-9" d="M118.43,420v11.74a15.09,15.09,0,0,0,30.18,0V420Z" transform="translate(0)"/><path class="cls-3" d="M133.52,448.36a16.66,16.66,0,0,1-16.66-16.63V420a1.54,1.54,0,0,1,1.54-1.54h30.18a1.54,1.54,0,0,1,1.54,1.54v11.74a16.64,16.64,0,0,1-16.6,16.62ZM120,421.53v10.2a13.55,13.55,0,0,0,27.1,0v-10.2Z" transform="translate(0)"/><path class="cls-3" d="M148.61,420v11.74a15.09,15.09,0,0,0,29.14,5.89,15.19,15.19,0,0,0,1-5.89V420Z" transform="translate(0)"/><path class="cls-3" d="M163.7,448.36a16.66,16.66,0,0,1-16.63-16.63V420a1.54,1.54,0,0,1,1.54-1.54h30.17a1.54,1.54,0,0,1,1.54,1.54v11.74a16.66,16.66,0,0,1-16.62,16.62Zm-13.55-26.83v10.2a13.48,13.48,0,0,0,3.84,9.82,13.54,13.54,0,0,0,15,3,13.53,13.53,0,0,0,8.27-12.85v-10.2Z" transform="translate(0)"/><path class="cls-8" d="M178.78,420v11.74a15.09,15.09,0,0,0,30.18,0V420Z" transform="translate(0)"/><path class="cls-3" d="M193.86,448.36a16.66,16.66,0,0,1-16.63-16.63V420a1.54,1.54,0,0,1,1.54-1.54H209A1.54,1.54,0,0,1,210.5,420v11.74a16.64,16.64,0,0,1-16.64,16.62Zm-13.55-26.83v10.2a13.55,13.55,0,0,0,27.1,0v-10.2Z" transform="translate(0)"/><path class="cls-9" d="M209,420v11.74a15.09,15.09,0,1,0,30.18,0V420Z" transform="translate(0)"/><path class="cls-3" d="M224.05,448.36a16.66,16.66,0,0,1-16.63-16.63V420a1.54,1.54,0,0,1,1.54-1.54h30.18a1.52,1.52,0,0,1,.59.12,1.49,1.49,0,0,1,.83.83,1.52,1.52,0,0,1,.12.59v11.74a16.64,16.64,0,0,1-16.63,16.62ZM210.5,421.53v10.2a13.55,13.55,0,0,0,27.1,0v-10.2Z" transform="translate(0)"/><path class="cls-3" d="M183.63,393h-8a1.52,1.52,0,0,1-.63-.08,1.64,1.64,0,0,1-.54-.32,1.57,1.57,0,0,1,0-2.27A1.64,1.64,0,0,1,175,390a1.52,1.52,0,0,1,.63-.08h8a1.52,1.52,0,0,1,.63.08,1.64,1.64,0,0,1,.54.32,1.57,1.57,0,0,1,.36.52,1.52,1.52,0,0,1,0,1.23,1.57,1.57,0,0,1-.36.52,1.64,1.64,0,0,1-.54.32,1.52,1.52,0,0,1-.63.08Z" transform="translate(0)"/><path class="cls-3" d="M204.1,460.05H178.78a1.54,1.54,0,1,1,0-3.08H204.1a1.54,1.54,0,1,1,0,3.08Z" transform="translate(0)"/><path class="cls-3" d="M190.78,467.43h-12a1.54,1.54,0,1,1,0-3.08h12a1.54,1.54,0,1,1,0,3.08Z" transform="translate(0)"/><path class="cls-10" d="M186.21,474.2h-7.43a1.54,1.54,0,1,1,0-3.08h7.43a1.54,1.54,0,1,1,0,3.08Z" transform="translate(0)"/><path class="cls-3" d="M204.1,467.43h-5.87a1.54,1.54,0,1,1,0-3.08h5.87a1.54,1.54,0,1,1,0,3.08Z" transform="translate(0)"/><path class="cls-10" d="M204.1,487.29H178.78a1.54,1.54,0,1,1,0-3.08H204.1a1.54,1.54,0,1,1,0,3.08Z" transform="translate(0)"/><path class="cls-3" d="M190.78,494.67h-12a1.54,1.54,0,1,1,0-3.08h12a1.54,1.54,0,1,1,0,3.08Z" transform="translate(0)"/><path class="cls-3" d="M186.21,501.44h-7.43a1.54,1.54,0,1,1,0-3.08h7.43a1.54,1.54,0,1,1,0,3.08Z" transform="translate(0)"/><path class="cls-9" d="M204.1,494.67h-5.87a1.54,1.54,0,1,1,0-3.08h5.87a1.54,1.54,0,1,1,0,3.08Z" transform="translate(0)"/><path class="cls-3" d="M171.13,465.89a11.27,11.27,0,1,1-3.3-8A11.24,11.24,0,0,1,171.13,465.89Z" transform="translate(0)"/><path class="cls-3" d="M171.13,495.09a11.27,11.27,0,1,1-3.3-8A11.24,11.24,0,0,1,171.13,495.09Z" transform="translate(0)"/><path class="cls-6" d="M152.73,472.07a1.31,1.31,0,0,0,.11.52,1.34,1.34,0,0,0,.29.45,1.51,1.51,0,0,0,.45.29,1.3,1.3,0,0,0,.52.1l11.49-.06a1.5,1.5,0,0,0,.52-.1,1.37,1.37,0,0,0,.45-.3,1.51,1.51,0,0,0,.29-.45,1.3,1.3,0,0,0,.1-.52l-1.84-12h-1.72v-.15a3.63,3.63,0,0,0-1-2.68,3.68,3.68,0,0,0-1.19-.84,3.74,3.74,0,0,0-1.44-.29,3.64,3.64,0,0,0-1.42.29,3.72,3.72,0,0,0-1.2.84,3.63,3.63,0,0,0-1,2.68V460h-1.9ZM157,460v-.15a2.82,2.82,0,0,1,5.63,0V460Z" transform="translate(0)"/><path class="cls-6" d="M152.73,501.57a1.3,1.3,0,0,0,.1.52,1.37,1.37,0,0,0,.3.45,1.25,1.25,0,0,0,.44.29,1.39,1.39,0,0,0,.53.1h11.49a1.38,1.38,0,0,0,1.36-1.38l-1.84-12h-1.72v-.14a3.64,3.64,0,0,0-1.12-2.44,3.64,3.64,0,0,0-5,0,3.64,3.64,0,0,0-1.12,2.44v.15h-1.9ZM157,489.52a.33.33,0,0,1,0-.14,2.78,2.78,0,0,1,.76-2.1,3,3,0,0,1,.94-.66,2.82,2.82,0,0,1,2.23,0,3,3,0,0,1,.94.66,2.84,2.84,0,0,1,.59,1,2.73,2.73,0,0,1,.17,1.13v.15Z" transform="translate(0)"/><path class="cls-5" d="M868.44,533.59a5,5,0,0,1-5,5H799a5,5,0,0,1-5-5V493.31a5,5,0,0,1,5-5h64.44a5,5,0,0,1,5,4.95Z" transform="translate(0)"/><path class="cls-3" d="M863.48,540.09H799a6.52,6.52,0,0,1-6.5-6.5V493.31a6.52,6.52,0,0,1,6.5-6.5h64.44a6.65,6.65,0,0,1,2.49.49,6.79,6.79,0,0,1,2.11,1.41,6.54,6.54,0,0,1,1.9,4.59v40.28a6.52,6.52,0,0,1-6.5,6.5ZM799,489.89a3.41,3.41,0,0,0-3.42,3.42v40.28A3.41,3.41,0,0,0,799,537h64.44a3.48,3.48,0,0,0,1.31-.26,3.4,3.4,0,0,0,1.85-1.85,3.48,3.48,0,0,0,.26-1.31h0V493.31a3.48,3.48,0,0,0-.26-1.31,3.34,3.34,0,0,0-1.85-1.84,3.48,3.48,0,0,0-1.31-.26H799Z" transform="translate(0)"/><path class="cls-3" d="M863.48,540.09H799a6.52,6.52,0,0,1-6.5-6.5V493.31a6.52,6.52,0,0,1,6.5-6.5h64.44a6.65,6.65,0,0,1,2.49.49,6.79,6.79,0,0,1,2.11,1.41,6.54,6.54,0,0,1,1.9,4.59v40.28a6.52,6.52,0,0,1-6.5,6.5ZM799,489.89a3.41,3.41,0,0,0-3.42,3.42v40.28A3.41,3.41,0,0,0,799,537h64.44a3.48,3.48,0,0,0,1.31-.26,3.4,3.4,0,0,0,1.85-1.85,3.48,3.48,0,0,0,.26-1.31h0V493.31a3.48,3.48,0,0,0-.26-1.31,3.34,3.34,0,0,0-1.85-1.84,3.48,3.48,0,0,0-1.31-.26H799Z" transform="translate(0)"/><path class="cls-6" d="M868.44,499.07H794.08v11.46h74.36Z" transform="translate(0)"/><path class="cls-6" d="M868.44,512.07H794.08a1.54,1.54,0,0,1-1.54-1.54V499.07a1.54,1.54,0,0,1,1.54-1.54h74.36a1.54,1.54,0,0,1,1.54,1.54v11.45a1.54,1.54,0,0,1-1.54,1.54ZM795.62,509h71.24v-8.37H795.62Z" transform="translate(0)"/><path class="cls-3" d="M809.08,517.28h-5.71a2.39,2.39,0,0,0-2.38,2.38v5.71a2.39,2.39,0,0,0,2.38,2.38h5.71a2.38,2.38,0,0,0,2.38-2.38v-5.71A2.38,2.38,0,0,0,809.08,517.28Z" transform="translate(0)"/><path class="cls-3" d="M859.86,533.82h-32a1.54,1.54,0,1,1,0-3.08h32a1.54,1.54,0,1,1,0,3.08Z" transform="translate(0)"/><path class="cls-3" d="M822,533.81h-6.5a1.54,1.54,0,1,1,0-3.08H822a1.5,1.5,0,0,1,.63.08,1.64,1.64,0,0,1,.54.32,1.57,1.57,0,0,1,.36.52,1.52,1.52,0,0,1,0,1.23,1.57,1.57,0,0,1-.36.52,1.64,1.64,0,0,1-.54.32,1.5,1.5,0,0,1-.63.08Z" transform="translate(0)"/><path class="cls-7" d="M880.3,505.5,863.3,469a5,5,0,0,0-6.59-2.4L810,488.35H863.5a5,5,0,0,1,5,4.95v23.2l9.46-4.42a5,5,0,0,0,2.34-6.58Z" transform="translate(0)"/><path class="cls-3" d="M868.44,518a1.5,1.5,0,0,1-.59-.1,1.42,1.42,0,0,1-.51-.32,1.51,1.51,0,0,1-.48-1.08V493.31a3.48,3.48,0,0,0-.26-1.31,3.43,3.43,0,0,0-.74-1.11,3.57,3.57,0,0,0-1.11-.73,3.48,3.48,0,0,0-1.31-.26H810a1.53,1.53,0,0,1-1-.33,1.49,1.49,0,0,1-.55-.87,1.56,1.56,0,0,1,.13-1,1.52,1.52,0,0,1,.75-.71L856,465.21a6.51,6.51,0,0,1,8.63,3.14l17,36.51a6.55,6.55,0,0,1,.61,2.46,6.67,6.67,0,0,1-.39,2.51,6.45,6.45,0,0,1-3.36,3.67l-9.46,4.41a1.49,1.49,0,0,1-.63.09Zm-5-31.21a6.65,6.65,0,0,1,2.49.49,6.51,6.51,0,0,1,2.11,1.41,6.42,6.42,0,0,1,1.9,4.59v20.77l7.27-3.39a3.5,3.5,0,0,0,1.08-.79,3.42,3.42,0,0,0,.69-1.14,3.41,3.41,0,0,0-.12-2.61l-17-36.51a3.43,3.43,0,0,0-4.54-1.65L817,486.81Z" transform="translate(0)"/><path class="cls-10" d="M862.5,488.36l8-3.76-4.84-10.39-30.33,14.15Z" transform="translate(0)"/><path class="cls-3" d="M862.5,489.9H835.38a1.57,1.57,0,0,1-1-.34,1.51,1.51,0,0,1-.54-.87,1.57,1.57,0,0,1,.12-1,1.59,1.59,0,0,1,.74-.71l30.33-14.14a1.56,1.56,0,0,1,1.18-.05,1.54,1.54,0,0,1,.87.79L872,484a1.54,1.54,0,0,1-.74,2l-8.06,3.75a1.44,1.44,0,0,1-.65.15Zm-20.17-3.08h19.83l6.35-3-3.54-7.6Z" transform="translate(0)"/><path class="cls-3" d="M842,527.64h-6.55a1.54,1.54,0,1,1,0-3.08H842a1.54,1.54,0,1,1,0,3.08Z" transform="translate(0)"/><path class="cls-10" d="M859.86,527.64H849.25a1.54,1.54,0,1,1,0-3.08h10.61a1.54,1.54,0,1,1,0,3.08Z" transform="translate(0)"/><path class="cls-3" d="M608.15,246.38H564.8L545.22,271v79.64a8.77,8.77,0,0,0,8.77,8.77h64.67a8.77,8.77,0,0,0,8.77-8.77V271Z" transform="translate(0)"/><path class="cls-3" d="M618.66,360.94H554a10.35,10.35,0,0,1-10.31-10.31V271a1.52,1.52,0,0,1,.34-1l19.58-24.61a1.48,1.48,0,0,1,.53-.43,1.56,1.56,0,0,1,.67-.15h43.35a1.57,1.57,0,0,1,.67.16,1.52,1.52,0,0,1,.54.43L628.64,270a1.46,1.46,0,0,1,.33,1v79.64a10.33,10.33,0,0,1-10.31,10.3Zm-71.9-89.41v79.1a7.24,7.24,0,0,0,7.23,7.23h64.67a7.22,7.22,0,0,0,7.23-7.23V271.52l-18.49-23.6H565.55Z" transform="translate(0)"/><path class="cls-5" d="M605.1,252.32H567.86l-16.85,22v71.27a7.72,7.72,0,0,0,7.54,7.85H614.2a7.7,7.7,0,0,0,7.55-7.85V274.34Z" transform="translate(0)"/><path class="cls-3" d="M611.3,354.23h-4.1a.73.73,0,0,1-.54-.23.75.75,0,0,1,0-1.08.73.73,0,0,1,.54-.23h4.1a.77.77,0,0,1,0,1.54Zm-8.21,0H599a.73.73,0,0,1-.54-.23.75.75,0,0,1,0-1.08.73.73,0,0,1,.54-.23h4.1a.77.77,0,0,1,0,1.54Zm-8.21,0h-4.1a.78.78,0,0,1-.55-.23.77.77,0,0,1,0-1.08.78.78,0,0,1,.55-.23h4.08a.77.77,0,0,1,0,1.54Zm-8.21,0h-4.11A.73.73,0,0,1,582,354a.75.75,0,0,1,0-1.08.73.73,0,0,1,.54-.23h4.11a.77.77,0,0,1,0,1.54Zm-8.21,0h-4.11a.78.78,0,0,1-.55-.23.77.77,0,0,1,0-1.08.78.78,0,0,1,.55-.23h4.11a.77.77,0,0,1,0,1.54Zm-8.21,0h-4.11a.76.76,0,0,1-.55-.23.77.77,0,0,1,0-1.08.76.76,0,0,1,.55-.23h4.11a.77.77,0,0,1,0,1.54Zm-8.22,0h-4.16a.74.74,0,0,1-.29-.08.88.88,0,0,1-.24-.19.72.72,0,0,1-.14-.26.63.63,0,0,1,0-.3,1,1,0,0,1,.08-.29.71.71,0,0,1,.19-.23.68.68,0,0,1,.26-.15.77.77,0,0,1,.3,0h4a.77.77,0,0,1,0,1.54Zm53.37-.11a.8.8,0,0,1-.49-.18.77.77,0,0,1-.26-.46.76.76,0,0,1,0-.3,1,1,0,0,1,.12-.28.7.7,0,0,1,.22-.2.75.75,0,0,1,.28-.11,6.74,6.74,0,0,0,3.27-1.59.8.8,0,0,1,.54-.13.78.78,0,0,1,.67.78.8.8,0,0,1-.21.51,8.21,8.21,0,0,1-4,2Zm-61.26-1.34a.75.75,0,0,1-.46-.15,8.55,8.55,0,0,1-2.77-3.5.73.73,0,0,1,0-.58.72.72,0,0,1,.4-.42.73.73,0,0,1,.58,0,.75.75,0,0,1,.42.4,7.07,7.07,0,0,0,2.26,2.87,1.1,1.1,0,0,1,.21.22.94.94,0,0,1,.1.28.8.8,0,0,1,0,.31,1,1,0,0,1-.13.27.84.84,0,0,1-.27.22.73.73,0,0,1-.33.08ZM621.28,349H621a.72.72,0,0,1-.27-.15.88.88,0,0,1-.19-.24.84.84,0,0,1-.08-.3.81.81,0,0,1,0-.31,7.49,7.49,0,0,0,.38-2.34v-1.48a.74.74,0,0,1,.23-.54.73.73,0,0,1,.54-.23.79.79,0,0,1,.77.77v1.48a8.73,8.73,0,0,1-.46,2.82.81.81,0,0,1-.28.38.8.8,0,0,1-.45.14ZM551,345.62a.8.8,0,0,1-.3-.06.67.67,0,0,1-.25-.16.85.85,0,0,1-.17-.25,1,1,0,0,1,0-.3v-4.1a.77.77,0,0,1,.22-.54A.78.78,0,0,1,551,340a.79.79,0,0,1,.77.77v4.1a.79.79,0,0,1-.24.52.74.74,0,0,1-.53.21Zm70.74-4.79a.8.8,0,0,1-.3-.06.67.67,0,0,1-.25-.16.85.85,0,0,1-.17-.25,1,1,0,0,1-.05-.3V336a.74.74,0,0,1,.23-.54.73.73,0,0,1,.54-.23.79.79,0,0,1,.77.77v4a1,1,0,0,1-.05.3.9.9,0,0,1-.17.26.85.85,0,0,1-.25.17.8.8,0,0,1-.3.06ZM551,337.41a.8.8,0,0,1-.3-.06.67.67,0,0,1-.25-.16.85.85,0,0,1-.17-.25,1,1,0,0,1,0-.3v-4.11a.77.77,0,0,1,.22-.54.78.78,0,0,1,.55-.23.79.79,0,0,1,.77.77v4.11a.79.79,0,0,1-.24.52.74.74,0,0,1-.53.21Zm70.74-4.79a.8.8,0,0,1-.3-.06.67.67,0,0,1-.25-.16.85.85,0,0,1-.17-.25,1,1,0,0,1-.05-.3v-4.1a.74.74,0,0,1,.23-.54.73.73,0,0,1,.54-.23.79.79,0,0,1,.77.77v4.1a.79.79,0,0,1-.24.52.74.74,0,0,1-.53.21ZM551,329.2a.78.78,0,0,1-.55-.23.77.77,0,0,1-.22-.54v-4.11a.77.77,0,0,1,.22-.54.78.78,0,0,1,.55-.23.79.79,0,0,1,.77.77v4.11a.79.79,0,0,1-.24.52.8.8,0,0,1-.53.21Zm70.74-4.79a.8.8,0,0,1-.3-.06.67.67,0,0,1-.25-.16.85.85,0,0,1-.17-.25,1,1,0,0,1-.05-.3v-4.1a.74.74,0,0,1,.23-.54.73.73,0,0,1,.54-.23.79.79,0,0,1,.77.77v4.1a.79.79,0,0,1-.24.52.74.74,0,0,1-.53.21ZM551,321a.78.78,0,0,1-.55-.23.77.77,0,0,1-.22-.54v-4.11a.77.77,0,0,1,.22-.54.78.78,0,0,1,.55-.23.79.79,0,0,1,.77.77v4.11a.79.79,0,0,1-.77.77Zm70.74-4.79a.73.73,0,0,1-.54-.23.74.74,0,0,1-.23-.54v-4.11a.74.74,0,0,1,.23-.54.73.73,0,0,1,.54-.23.79.79,0,0,1,.77.77v4.11a.79.79,0,0,1-.77.72ZM551,312.79a.78.78,0,0,1-.55-.23.77.77,0,0,1-.22-.54v-4.11a.77.77,0,0,1,.22-.54.78.78,0,0,1,.55-.23.79.79,0,0,1,.77.77V312a.77.77,0,0,1-.24.52.75.75,0,0,1-.53.22ZM621.7,308a.73.73,0,0,1-.54-.23.74.74,0,0,1-.23-.54v-4.11a.74.74,0,0,1,.23-.54.73.73,0,0,1,.54-.23.79.79,0,0,1,.77.77v4.11a.79.79,0,0,1-.77.77ZM551,304.57a.8.8,0,0,1-.3-.06.67.67,0,0,1-.25-.16.85.85,0,0,1-.17-.25,1,1,0,0,1,0-.3v-4.1a.77.77,0,0,1,.22-.54.78.78,0,0,1,.55-.23.79.79,0,0,1,.77.77v4.1a.77.77,0,0,1-.24.51.76.76,0,0,1-.53.21Zm70.74-4.78a.73.73,0,0,1-.54-.23.74.74,0,0,1-.23-.54v-4.11a.74.74,0,0,1,.23-.54.73.73,0,0,1,.54-.23.79.79,0,0,1,.77.77V299a.77.77,0,0,1-.24.52.75.75,0,0,1-.53.22ZM551,296.36a.8.8,0,0,1-.3-.06.67.67,0,0,1-.25-.16.85.85,0,0,1-.17-.25,1,1,0,0,1,0-.3v-4.1a.77.77,0,0,1,.22-.54.78.78,0,0,1,.55-.23.79.79,0,0,1,.77.77v4.1a.75.75,0,0,1-.24.51.76.76,0,0,1-.53.21Zm70.74-4.79a.8.8,0,0,1-.3-.06.67.67,0,0,1-.25-.16.85.85,0,0,1-.17-.25,1,1,0,0,1-.05-.3v-4.1a.74.74,0,0,1,.23-.54.73.73,0,0,1,.54-.23.79.79,0,0,1,.77.77v4.1a.77.77,0,0,1-.24.51.76.76,0,0,1-.53.21ZM551,288.1a.8.8,0,0,1-.3-.06.67.67,0,0,1-.25-.16.85.85,0,0,1-.17-.25,1,1,0,0,1,0-.3v-4.11a.77.77,0,0,1,.22-.54.78.78,0,0,1,.55-.23.79.79,0,0,1,.77.77v4.11a.79.79,0,0,1-.77.77Zm70.74-4.79a.8.8,0,0,1-.3-.06.67.67,0,0,1-.25-.16.85.85,0,0,1-.17-.25,1,1,0,0,1-.05-.3v-4.1a.74.74,0,0,1,.23-.54.73.73,0,0,1,.54-.23.79.79,0,0,1,.77.77v4.1a.79.79,0,0,1-.77.77ZM551,279.89a.78.78,0,0,1-.55-.23.77.77,0,0,1-.22-.54V275a.77.77,0,0,1,.22-.54.78.78,0,0,1,.55-.23.79.79,0,0,1,.77.77v4.11a.8.8,0,0,1-.22.55.83.83,0,0,1-.55.23Zm70.73-4.79a.81.81,0,0,1-.34-.08.73.73,0,0,1-.27-.22l-2.47-3.28a.68.68,0,0,1-.13-.27.76.76,0,0,1,0-.3.67.67,0,0,1,.1-.28.74.74,0,0,1,.2-.23.68.68,0,0,1,.27-.13.76.76,0,0,1,.3,0,.67.67,0,0,1,.28.1.74.74,0,0,1,.23.2l2.47,3.28a.82.82,0,0,1,.15.57.76.76,0,0,1-.77.66ZM553,272.38a.75.75,0,0,1-.46-.15.79.79,0,0,1-.3-.51.82.82,0,0,1,.15-.57l2.5-3.26a.8.8,0,0,1,.22-.23.81.81,0,0,1,.29-.12.77.77,0,0,1,.61.15.68.68,0,0,1,.2.24.67.67,0,0,1,.1.3.85.85,0,0,1,0,.32.74.74,0,0,1-.16.27l-2.49,3.26a.76.76,0,0,1-.28.22.77.77,0,0,1-.34.08Zm63.71-3.83a.77.77,0,0,1-.34-.08.87.87,0,0,1-.27-.23L613.66,265a.78.78,0,0,1-.14-.57.79.79,0,0,1,.3-.51.78.78,0,0,1,.53-.17.8.8,0,0,1,.51.25l2.48,3.28a.78.78,0,0,1,.14.57.79.79,0,0,1-.3.51.7.7,0,0,1-.43.19ZM558,265.86a.76.76,0,0,1-.46-.16.79.79,0,0,1-.3-.51.82.82,0,0,1,.15-.57l2.5-3.26a.8.8,0,0,1,.51-.29.78.78,0,0,1,.57.15.74.74,0,0,1,.2.23.66.66,0,0,1,.09.28.61.61,0,0,1,0,.3.68.68,0,0,1-.13.27l-2.49,3.26a.82.82,0,0,1-.27.22.72.72,0,0,1-.35.08ZM611.86,262a.75.75,0,0,1-.62-.31l-2.47-3.28a.72.72,0,0,1-.15-.27.69.69,0,0,1,0-.32.86.86,0,0,1,.09-.3.66.66,0,0,1,.21-.23.72.72,0,0,1,.28-.13.69.69,0,0,1,.32,0,.81.81,0,0,1,.29.12.77.77,0,0,1,.22.22l2.47,3.27a.68.68,0,0,1,.13.27.76.76,0,0,1,0,.3.85.85,0,0,1-.1.28.74.74,0,0,1-.2.23A.76.76,0,0,1,611.86,262Zm-48.78-2.65a.72.72,0,0,1-.47-.16.79.79,0,0,1-.3-.51.82.82,0,0,1,.15-.57l2.5-3.26a.74.74,0,0,1,.51-.29.78.78,0,0,1,.57.15.76.76,0,0,1,.29.51.78.78,0,0,1-.15.57L563.64,259a.85.85,0,0,1-.26.24.74.74,0,0,1-.35.1Zm43.78-3.92a.75.75,0,0,1-.62-.31l-1.53-2H601a.73.73,0,0,1-.54-.23.75.75,0,0,1,0-1.08.73.73,0,0,1,.54-.23h4.1a.77.77,0,0,1,.34.08.79.79,0,0,1,.28.23l1.76,2.34a.68.68,0,0,1,.13.27.76.76,0,0,1,0,.3.94.94,0,0,1-.1.28.83.83,0,0,1-.2.22A.77.77,0,0,1,606.86,255.43Zm-10-2.34h-4.1a.76.76,0,0,1-.54-.22.78.78,0,0,1-.23-.55.74.74,0,0,1,.23-.54.73.73,0,0,1,.54-.23h4.1a.72.72,0,0,1,.29.06.62.62,0,0,1,.25.17.66.66,0,0,1,.17.24.78.78,0,0,1,0,.6.79.79,0,0,1-.17.25.82.82,0,0,1-.54.22Zm-8.21,0h-4.11a.75.75,0,0,1-.77-.77.77.77,0,0,1,.22-.54.78.78,0,0,1,.55-.23h4.11a.72.72,0,0,1,.29.06.62.62,0,0,1,.25.17.66.66,0,0,1,.17.24.78.78,0,0,1,0,.6.79.79,0,0,1-.17.25.82.82,0,0,1-.54.22Zm-8.21,0h-4.08a.77.77,0,0,1-.54-.22.78.78,0,0,1-.23-.55.79.79,0,0,1,.77-.77h4.11a.72.72,0,0,1,.29.06.62.62,0,0,1,.25.17.66.66,0,0,1,.17.24.78.78,0,0,1,0,.6.79.79,0,0,1-.17.25.82.82,0,0,1-.54.22Zm-8.21,0h-4.11a.76.76,0,0,1-.54-.22.78.78,0,0,1-.23-.55.74.74,0,0,1,.23-.54.73.73,0,0,1,.54-.23h4.11a.72.72,0,0,1,.29.06.62.62,0,0,1,.25.17.76.76,0,0,1,.17.84,1,1,0,0,1-.17.25.82.82,0,0,1-.54.22Z" transform="translate(0)"/><path class="cls-10" d="M620.76,317.18h-69v29.36h69Z" transform="translate(0)"/><path class="cls-6" d="M607.05,326.77a4,4,0,0,0-1-2.87,9,9,0,0,0-3.4-2,42,42,0,0,1-4.14-1.79,13.19,13.19,0,0,1-3-2,8.14,8.14,0,0,1-1.93-2.71,9.15,9.15,0,0,1-.7-3.72,8.24,8.24,0,0,1,2.38-6.09,10,10,0,0,1,6.31-2.78v-4.7h3.52v4.77a9.22,9.22,0,0,1,6.1,3.24,10.75,10.75,0,0,1,2.2,7H607a6,6,0,0,0-1.09-4,3.58,3.58,0,0,0-1.31-1,3.67,3.67,0,0,0-1.61-.31,3.82,3.82,0,0,0-1.5.21,3.66,3.66,0,0,0-1.29.79,3.92,3.92,0,0,0-1,2.83,3.72,3.72,0,0,0,.23,1.44,3.64,3.64,0,0,0,.77,1.24,10.45,10.45,0,0,0,3.6,2.07,42.28,42.28,0,0,1,4.32,2A12.9,12.9,0,0,1,611,320.5a8.1,8.1,0,0,1,1.78,2.69,9.35,9.35,0,0,1,.62,3.51,8.17,8.17,0,0,1-.54,3.28,8.26,8.26,0,0,1-1.8,2.79,10.2,10.2,0,0,1-6.42,2.75v4.38h-3.5v-4.36a10.58,10.58,0,0,1-7-3.2,10.32,10.32,0,0,1-2.48-7.23H598a5.84,5.84,0,0,0,1.25,4,4.65,4.65,0,0,0,1.63,1.1,4.59,4.59,0,0,0,1.94.3,4.37,4.37,0,0,0,3.06-1,3.52,3.52,0,0,0,.87-1.25A3.62,3.62,0,0,0,607.05,326.77Z" transform="translate(0)"/><path class="cls-3" d="M586.33,261.93a9.47,9.47,0,0,0-1.84,18.76,9.45,9.45,0,0,0,9.72-4,9.45,9.45,0,0,0,1.59-5.26A9.47,9.47,0,0,0,593,264.7a9.51,9.51,0,0,0-6.7-2.77Zm0,13.12a3.65,3.65,0,0,1-2-.62,3.55,3.55,0,0,1-1.35-1.64,3.63,3.63,0,0,1-.21-2.11,3.66,3.66,0,0,1,6.63-1.32,3.6,3.6,0,0,1,.62,2,3.65,3.65,0,0,1-3.66,3.66Z" transform="translate(0)"/><path class="cls-6" d="M588.86,271c-2,0-5.86-7.87-5.86-22.94s3.82-22.94,5.86-22.94,5.32,7.68,5.8,19.84h3.08c-.43-11.29-3.32-22.92-8.88-22.92-5.87,0-8.94,13.09-8.94,26s3.07,26,8.94,26a1.54,1.54,0,1,0,0-3.08Z" transform="translate(0)"/><path class="cls-3" d="M574.65,326.11H559.13a1.54,1.54,0,1,1,0-3.08h15.52a1.54,1.54,0,1,1,0,3.08Z" transform="translate(0)"/><path class="cls-3" d="M585,326.11h-3.58a1.54,1.54,0,1,1,0-3.08H585a1.54,1.54,0,1,1,0,3.08Z" transform="translate(0)"/><path class="cls-3" d="M585,333.4H559.13a1.54,1.54,0,1,1,0-3.08H585a1.54,1.54,0,1,1,0,3.08Z" transform="translate(0)"/><path class="cls-3" d="M567.67,340.68h-8.54a1.54,1.54,0,1,1,0-3.08h8.54a1.54,1.54,0,1,1,0,3.08Z" transform="translate(0)"/><path class="cls-3" d="M578.78,340.68h-5.46a1.54,1.54,0,1,1,0-3.08h5.46a1.54,1.54,0,1,1,0,3.08Z" transform="translate(0)"/><path class="cls-5" d="M746.92,520.43V385.53a16.87,16.87,0,0,0-16.86-16.86H527.72a16.87,16.87,0,0,0-16.86,16.86v134.9Z" transform="translate(0)"/><path class="cls-3" d="M746.92,522H510.86a1.71,1.71,0,0,1-.59-.11,1.53,1.53,0,0,1-.5-.34,1.63,1.63,0,0,1-.33-.49,1.52,1.52,0,0,1-.12-.59V385.53a18.42,18.42,0,0,1,18.4-18.4H730.06a18.44,18.44,0,0,1,18.4,18.4v134.9a1.36,1.36,0,0,1-.11.6,1.32,1.32,0,0,1-.33.51,1.43,1.43,0,0,1-.5.34,1.57,1.57,0,0,1-.6.12ZM512.4,518.93h233V385.53a15.33,15.33,0,0,0-15.32-15.32H527.72a15.33,15.33,0,0,0-15.32,15.32Z" transform="translate(0)"/><path class="cls-10" d="M739.08,389.47c0-8.69-4.82-11.6-13.51-11.6H531.33c-8.7,0-12.63,2.91-12.63,11.6v24.66H739.08Z" transform="translate(0)"/><path class="cls-3" d="M739.08,415.67H518.7a1.54,1.54,0,0,1-1.54-1.54V389.47c0-9.21,4.24-13.14,14.17-13.14H725.57c6.46,0,15,1.36,15,13.14v24.66a1.58,1.58,0,0,1-.43,1.07,1.53,1.53,0,0,1-1.06.47Zm-218.84-3.08h217.3V389.47c0-7.24-3.36-10.06-12-10.06H531.33c-8.29,0-11.09,2.54-11.09,10.06Z" transform="translate(0)"/><path class="cls-5" d="M739.08,414.13H518.7v106.3H739.08Z" transform="translate(0)"/><path class="cls-3" d="M739.08,522H518.7a1.71,1.71,0,0,1-.59-.11,1.53,1.53,0,0,1-.5-.34,1.46,1.46,0,0,1-.33-.49,1.52,1.52,0,0,1-.12-.59V414.13a1.54,1.54,0,0,1,1.54-1.54H739.08a1.54,1.54,0,0,1,1.54,1.54v106.3a1.36,1.36,0,0,1-.11.6,1.32,1.32,0,0,1-.33.51,1.43,1.43,0,0,1-.5.34,1.57,1.57,0,0,1-.6.12Zm-218.84-3.07h217.3V415.67H520.24Z" transform="translate(0)"/><path class="cls-5" d="M510.86,538.45H746.92s18,0,18-18H492.86C492.86,538.45,510.86,538.45,510.86,538.45Z" transform="translate(0)"/><path class="cls-3" d="M746.92,540H510.86c-.2,0-19.5-.23-19.5-19.56a1.54,1.54,0,0,1,1.54-1.54h272a1.54,1.54,0,0,1,1.54,1.54C766.42,539.76,747.11,540,746.92,540ZM494.49,522c1,14.76,15.72,14.94,16.37,14.94H746.92c.64,0,15.41-.23,16.37-14.94Z" transform="translate(0)"/><path class="cls-3" d="M545.58,396.3a4.91,4.91,0,0,1-5.85,4.82,4.9,4.9,0,0,1-3.58-6.68,4.81,4.81,0,0,1,1.81-2.2,4.9,4.9,0,0,1,7.62,4.06Z" transform="translate(0)"/><path class="cls-3" d="M562.92,396.3a4.91,4.91,0,0,1-5.85,4.82,4.9,4.9,0,0,1-3.58-6.68,4.81,4.81,0,0,1,1.81-2.2,4.9,4.9,0,0,1,7.62,4.06Z" transform="translate(0)"/><path class="cls-5" d="M580.26,396.3a4.91,4.91,0,0,1-5.85,4.82,5,5,0,0,1-2.51-1.34,4.93,4.93,0,0,1-1.07-5.34,4.81,4.81,0,0,1,1.81-2.2,4.9,4.9,0,0,1,7.62,4.06Z" transform="translate(0)"/><path class="cls-9" d="M615.11,470.76a38.65,38.65,0,1,1-11.32-27.31,38.66,38.66,0,0,1,11.32,27.31Z" transform="translate(0)"/><path class="cls-5" d="M548.08,450.08l8.3,32.39h38.55a6.38,6.38,0,0,0,6.37-6.37v-26Z" transform="translate(0)"/><path class="cls-3" d="M594.93,484H556.38a1.48,1.48,0,0,1-.94-.33,1.51,1.51,0,0,1-.55-.83l-8.3-32.39a1.51,1.51,0,0,1,0-.7,1.54,1.54,0,0,1,.83-1.07,1.57,1.57,0,0,1,.68-.15H601.3a1.54,1.54,0,0,1,1.54,1.54v26a7.87,7.87,0,0,1-.6,3,7.89,7.89,0,0,1-4.28,4.29,7.88,7.88,0,0,1-3,.61Zm-37.36-3.08h37.36a4.83,4.83,0,0,0,4.83-4.83V451.62h-49.7Z" transform="translate(0)"/><path class="cls-3" d="M556.38,484a1.53,1.53,0,0,1-.94-.32,1.57,1.57,0,0,1-.55-.83l-9.29-35.44-9.83-1.89a1.53,1.53,0,0,1-1.11-.6,1.61,1.61,0,0,1-.28-.59,1.53,1.53,0,0,1,0-.64,1.47,1.47,0,0,1,.26-.6,1.49,1.49,0,0,1,.47-.43,1.69,1.69,0,0,1,.62-.21,1.56,1.56,0,0,1,.64.07l10.77,2.07a1.56,1.56,0,0,1,1.2,1.12l9.53,36.37a1.54,1.54,0,0,1-1.1,1.88,1.64,1.64,0,0,1-.38,0Z" transform="translate(0)"/><path class="cls-3" d="M601.3,492.08H553.46a5.52,5.52,0,0,1-4.1-1.55,5.61,5.61,0,0,1-1.27-6.21,5.6,5.6,0,0,1,5.37-3.39H594a1.54,1.54,0,1,1,0,3.08H553.46a2.5,2.5,0,1,0,0,5H601.3a1.54,1.54,0,1,1,0,3.08Z" transform="translate(0)"/><path class="cls-3" d="M568.91,493.25a5.26,5.26,0,0,1-6.29,5.16,5.29,5.29,0,0,1-2.69-1.44,5.37,5.37,0,0,1-1.44-2.69,5.27,5.27,0,0,1,.3-3,5.26,5.26,0,0,1,10.12,2Z" transform="translate(0)"/><path class="cls-6" d="M563.65,500.05a6.78,6.78,0,0,1-3.78-1.15,6.67,6.67,0,0,1-2.5-3,6.8,6.8,0,1,1,6.28,4.2Zm0-10.52a3.72,3.72,0,0,0-2.63,6.35,3.69,3.69,0,0,0,1.9,1,3.72,3.72,0,0,0,4.45-3.65,3.7,3.7,0,0,0-1.09-2.63,3.78,3.78,0,0,0-1.21-.81,3.82,3.82,0,0,0-1.42-.28Z" transform="translate(0)"/><path class="cls-3" d="M593.29,493.25a5.26,5.26,0,0,1-6.29,5.16,5.26,5.26,0,0,1-3.83-7.17A5.28,5.28,0,0,1,588,488a5.26,5.26,0,0,1,5.26,5.26Z" transform="translate(0)"/><path class="cls-6" d="M588,500.05a6.8,6.8,0,0,1-6.29-4.19,6.79,6.79,0,1,1,6.29,4.19Zm0-10.52a3.73,3.73,0,0,0-2.07.63,3.71,3.71,0,0,0-.56,5.72,3.69,3.69,0,0,0,1.9,1,3.72,3.72,0,0,0,3.36-6.28,3.71,3.71,0,0,0-2.63-1.09Z" transform="translate(0)"/><path class="cls-3" d="M568.28,484a1.54,1.54,0,0,1-1.54-1.54V450.08a1.54,1.54,0,1,1,3.08,0v32.39a1.54,1.54,0,0,1-1.54,1.53Z" transform="translate(0)"/><path class="cls-3" d="M584.57,484a1.54,1.54,0,0,1-1.54-1.54V450.08a1.54,1.54,0,1,1,3.08,0v32.39a1.54,1.54,0,0,1-1.54,1.53Z" transform="translate(0)"/><path class="cls-3" d="M600.76,467.81H552.23a1.54,1.54,0,1,1,0-3.08h48.53a1.54,1.54,0,1,1,0,3.08Z" transform="translate(0)"/><path class="cls-3" d="M531.86,529.37h-16.1a1.5,1.5,0,0,1-.63-.08,1.64,1.64,0,0,1-.54-.32,1.54,1.54,0,0,1,0-2.27,1.64,1.64,0,0,1,.54-.32,1.5,1.5,0,0,1,.63-.08h16.1a1.52,1.52,0,0,1,.63.08,1.64,1.64,0,0,1,.54.32,1.57,1.57,0,0,1,.36.52,1.52,1.52,0,0,1,0,1.23,1.57,1.57,0,0,1-.36.52,1.64,1.64,0,0,1-.54.32,1.52,1.52,0,0,1-.63.08Z" transform="translate(0)"/><path class="cls-3" d="M739,529.37H555.64a1.52,1.52,0,0,1-.63-.08,1.64,1.64,0,0,1-.54-.32,1.57,1.57,0,0,1-.36-.52,1.52,1.52,0,0,1,0-1.23,1.57,1.57,0,0,1,.36-.52,1.64,1.64,0,0,1,.54-.32,1.52,1.52,0,0,1,.63-.08H739a1.54,1.54,0,0,1,1,.49,1.54,1.54,0,0,1,0,2.09A1.54,1.54,0,0,1,739,529.37Z" transform="translate(0)"/><path class="cls-5" d="M721.21,445.14H637v64.25h84.17Z" transform="translate(0)"/><path class="cls-3" d="M721.21,510.93H637a1.54,1.54,0,0,1-1.54-1.54V445.14A1.54,1.54,0,0,1,637,443.6h84.17a1.54,1.54,0,0,1,1.54,1.54v64.25a1.54,1.54,0,0,1-1.54,1.54Zm-82.63-3.08h81.09V446.68H638.58Z" transform="translate(0)"/><path class="cls-7" d="M656,445.14H632.51L652,428.07h14.11Z" transform="translate(0)"/><path class="cls-3" d="M656,446.68H632.51a1.54,1.54,0,0,1-1-2.7L651,426.91a1.59,1.59,0,0,1,1-.38H666.1a1.59,1.59,0,0,1,.77.21,1.56,1.56,0,0,1,.57.57,1.54,1.54,0,0,1,0,1.55l-10.08,17.06a1.67,1.67,0,0,1-.56.56,1.61,1.61,0,0,1-.77.2Zm-19.42-3.08h18.54l8.26-14H652.58Z" transform="translate(0)"/><path class="cls-3" d="M726.58,445.14H703.06l-8.73-17.07h14.11Z" transform="translate(0)"/><path class="cls-3" d="M726.58,446.68H703.07a1.56,1.56,0,0,1-1.37-.84L693,428.77a1.54,1.54,0,0,1-.17-.76,1.5,1.5,0,0,1,.23-.74,1.55,1.55,0,0,1,1.31-.74h14.11a1.56,1.56,0,0,1,1.06.42L727.64,444a1.58,1.58,0,0,1,.45.78,1.54,1.54,0,0,1-.07.9,1.58,1.58,0,0,1-1.44,1ZM704,443.6H722.7l-14.87-14h-11Z" transform="translate(0)"/><path class="cls-3" d="M679.54,445.14H656l10.08-17.07h14.11Z" transform="translate(0)"/><path class="cls-3" d="M679.55,446.68H656a1.49,1.49,0,0,1-.77-.21,1.53,1.53,0,0,1-.77-1.35,1.49,1.49,0,0,1,.21-.77l10.08-17.06a1.67,1.67,0,0,1,.56-.56,1.61,1.61,0,0,1,.77-.2h14.11a1.38,1.38,0,0,1,.6.13,1.52,1.52,0,0,1,.94,1.47l-.67,17.07a1.59,1.59,0,0,1-.47,1.05,1.58,1.58,0,0,1-1.07.43Zm-20.82-3.08h19.34l.55-14H667Z" transform="translate(0)"/><path class="cls-7" d="M703.06,445.14H679.54l.68-17.07h14.11Z" transform="translate(0)"/><path class="cls-3" d="M703.07,446.68H679.55a1.38,1.38,0,0,1-.6-.13,1.52,1.52,0,0,1-.94-1.47l.67-17.07a1.55,1.55,0,0,1,.47-1.05,1.53,1.53,0,0,1,1.07-.43h14.11a1.52,1.52,0,0,1,.8.23,1.46,1.46,0,0,1,.57.61l8.74,17.07a1.54,1.54,0,0,1,.17.76,1.5,1.5,0,0,1-.23.74,1.55,1.55,0,0,1-1.31.74Zm-21.92-3.08h19.4l-7.16-14H681.7Z" transform="translate(0)"/><path class="cls-9" d="M632.51,445.14v9.14a11.76,11.76,0,1,0,23.52,0v-9.14Z" transform="translate(0)"/><path class="cls-3" d="M644.27,467.58a13.32,13.32,0,0,1-13.3-13.3v-9.14a1.54,1.54,0,0,1,1.54-1.54H656a1.54,1.54,0,0,1,1.54,1.54v9.14a13.32,13.32,0,0,1-13.3,13.3Zm-10.22-20.9v7.6a10.22,10.22,0,1,0,20.44,0v-7.6Z" transform="translate(0)"/><path class="cls-3" d="M656,445.14v9.14a11.76,11.76,0,0,0,23.52,0v-9.14Z" transform="translate(0)"/><path class="cls-3" d="M667.79,467.58a13.32,13.32,0,0,1-13.3-13.3v-9.14A1.54,1.54,0,0,1,656,443.6h23.52a1.54,1.54,0,0,1,1.54,1.54v9.14a13.32,13.32,0,0,1-13.3,13.3Zm-10.22-20.9v7.6a10.22,10.22,0,1,0,20.44,0v-7.6Z" transform="translate(0)"/><path class="cls-9" d="M679.55,445.14v9.14a11.76,11.76,0,1,0,23.52,0v-9.14Z" transform="translate(0)"/><path class="cls-3" d="M691.31,467.58a13.32,13.32,0,0,1-13.3-13.3v-9.14a1.54,1.54,0,0,1,1.54-1.54h23.52a1.54,1.54,0,0,1,1.54,1.54v9.14a13.32,13.32,0,0,1-13.3,13.3Zm-10.22-20.9v7.6a10.22,10.22,0,1,0,20.44,0v-7.6Z" transform="translate(0)"/><path class="cls-3" d="M703.07,445.14v9.14a11.76,11.76,0,1,0,23.52,0v-9.14Z" transform="translate(0)"/><path class="cls-3" d="M714.86,467.58a13.32,13.32,0,0,1-13.3-13.3v-9.14a1.54,1.54,0,0,1,1.54-1.54h23.51a1.71,1.71,0,0,1,.59.11,1.62,1.62,0,0,1,.84.84,1.71,1.71,0,0,1,.11.59v9.14a13.3,13.3,0,0,1-13.29,13.3Zm-10.22-20.9v7.6a10.22,10.22,0,1,0,20.44,0v-7.6Z" transform="translate(0)"/><path class="cls-3" d="M652.22,498.54a2.56,2.56,0,0,0,.19.95,2.34,2.34,0,0,0,.55.8,2.61,2.61,0,0,0,.81.54,2.55,2.55,0,0,0,1,.18l20.89-.1a2.49,2.49,0,0,0,2.47-2.5l-3.34-21.86h-3.12v-.26a6.63,6.63,0,0,0-.51-2.52,6.59,6.59,0,0,0-6.1-4,6.51,6.51,0,0,0-4.64,1.95,6.56,6.56,0,0,0-1.91,4.66v.27H655Zm7.71-21.92v-.27a5.12,5.12,0,0,1,10.24-.05,1.22,1.22,0,0,1,0,.27Z" transform="translate(0)"/><path class="cls-9" d="M683,496.6a1.86,1.86,0,0,0,.56,1.34,1.9,1.9,0,0,0,1.35.56l16-.08a1.93,1.93,0,0,0,1.9-1.92l-2.57-16.77h-2.33v-.2a5.12,5.12,0,0,0-.39-1.93,5,5,0,0,0-1.11-1.63,5.1,5.1,0,0,0-3.57-1.46,5.12,5.12,0,0,0-1.93.39,5.18,5.18,0,0,0-1.63,1.11,4.9,4.9,0,0,0-1.09,1.64,5.1,5.1,0,0,0-.37,1.93v.2h-2.65Zm5.91-16.82a.67.67,0,0,1,0-.2,3.93,3.93,0,0,1,7.85,0v.21Z" transform="translate(0)"/><path class="cls-6" d="M670,501.1a1.86,1.86,0,0,0,.14.7,1.91,1.91,0,0,0,.4.6,1.94,1.94,0,0,0,.6.39,1.76,1.76,0,0,0,.71.14l15.51-.07a1.78,1.78,0,0,0,.71-.15,1.81,1.81,0,0,0,.59-.4,1.86,1.86,0,0,0,.4-.6,2,2,0,0,0,.14-.71l-2.48-16.23h-2.32v-.2A4.92,4.92,0,0,0,683,481a4.85,4.85,0,0,0-3.54-1.51,4.84,4.84,0,0,0-3.53,1.51,4.92,4.92,0,0,0-1.35,3.6v.2H672Zm5.72-16.28v-.19a3.8,3.8,0,1,1,7.6,0v.19Z" transform="translate(0)"/><path class="cls-7" d="M781.78,384a57.91,57.91,0,1,1-34.54-27.78A57.9,57.9,0,0,1,781.78,384Z" transform="translate(0)"/><path class="cls-3" d="M731.07,471.27a59.42,59.42,0,1,1,29.41-7.82,59.4,59.4,0,0,1-29.41,7.82Zm-.21-115.83a56.4,56.4,0,1,0,49.53,29.34h0a56,56,0,0,0-33.61-27,56.85,56.85,0,0,0-15.92-2.34Z" transform="translate(0)"/><path class="cls-5" d="M773,388.86a47.87,47.87,0,1,1-12-14.33,47.94,47.94,0,0,1,12,14.33Z" transform="translate(0)"/><path class="cls-10" d="M731,462.3a50.46,50.46,0,1,1,44.19-74.68h0A50.49,50.49,0,0,1,731,462.3Zm-.13-95.8a45.34,45.34,0,1,0,39.81,23.59h0a45.46,45.46,0,0,0-39.81-23.59Z" transform="translate(0)"/><path class="cls-3" d="M746.59,441.92a1.57,1.57,0,0,1-1-.31,1.48,1.48,0,0,1-.56-.86,1.56,1.56,0,0,1,.09-1,1.59,1.59,0,0,1,.72-.73,31.1,31.1,0,0,0,6.31-4.56,1.58,1.58,0,0,1,1.12-.46,1.59,1.59,0,0,1,.6.14,1.46,1.46,0,0,1,.5.35,1.51,1.51,0,0,1,.32.53,1.56,1.56,0,0,1,.09.61,1.51,1.51,0,0,1-.15.59,1.66,1.66,0,0,1-.38.49,34.13,34.13,0,0,1-6.93,5,1.53,1.53,0,0,1-.75.23Z" transform="translate(0)"/><path class="cls-3" d="M758.86,430.14a1.49,1.49,0,0,1-.77-.21,1.42,1.42,0,0,1-.57-.57,1.53,1.53,0,0,1-.19-.78,1.5,1.5,0,0,1,.22-.77,31,31,0,0,0-35.69-45.62A1.57,1.57,0,0,1,720,380a1.56,1.56,0,0,1,.93-.76,34.1,34.1,0,0,1,39.22,50.15,1.51,1.51,0,0,1-.55.57,1.57,1.57,0,0,1-.76.23Z" transform="translate(0)"/><path class="cls-3" d="M788.24,525.51a8.86,8.86,0,0,1-7.77-4.59l-29.76-54.41a1.5,1.5,0,0,1-.19-.62,1.71,1.71,0,0,1,.09-.64,1.42,1.42,0,0,1,.34-.55,1.54,1.54,0,0,1,.55-.36,56.85,56.85,0,0,0,6.52-3.06h0a56.74,56.74,0,0,0,6.09-3.85,1.47,1.47,0,0,1,.6-.26,1.53,1.53,0,0,1,.64,0,1.52,1.52,0,0,1,.59.27,1.55,1.55,0,0,1,.43.49l29.76,54.41a8.82,8.82,0,0,1-3.51,12l-.15.09a8.92,8.92,0,0,1-4.23,1.07Zm-34-59,28.94,52.9A5.76,5.76,0,0,0,791,521.7l.15-.09a5.84,5.84,0,0,0,1.73-1.44,5.75,5.75,0,0,0,1-2,5.82,5.82,0,0,0,.2-2.24,6,6,0,0,0-.68-2.14l-28.94-52.9a56.53,56.53,0,0,1-5,3.05,58.08,58.08,0,0,1-5.25,2.59Z" transform="translate(0)"/><path class="cls-3" d="M768.17,479.83a90.71,90.71,0,0,1-10.48,4.9l26,47.57a11.41,11.41,0,0,0,15.48,4.53l.25-.14A11.41,11.41,0,0,0,804,521.21l-26-47.56a92,92,0,0,1-9.78,6.18Z" transform="translate(0)"/><path class="cls-3" d="M793.74,539.77A13,13,0,0,1,782.36,533l-26-47.57a1.5,1.5,0,0,1-.19-.62,1.53,1.53,0,0,1,.09-.64,1.44,1.44,0,0,1,.35-.55,1.51,1.51,0,0,1,.54-.36,90.31,90.31,0,0,0,19.92-10.9,1.48,1.48,0,0,1,.59-.26,1.58,1.58,0,0,1,.65,0,1.66,1.66,0,0,1,.59.27,1.52,1.52,0,0,1,.42.49l26,47.57a12.86,12.86,0,0,1,1.07,9.84,13,13,0,0,1-6.21,7.72l-.25.14A12.77,12.77,0,0,1,793.74,539.77Zm-33.88-54.26,25.19,46a9.87,9.87,0,0,0,13.39,3.92l.25-.14A9.87,9.87,0,0,0,802.62,522l-25.19-46a92.08,92.08,0,0,1-8.52,5.27h0a91.92,91.92,0,0,1-9,4.24Z" transform="translate(0)"/><path class="cls-3" d="M784.36,517.39a1.56,1.56,0,0,1-1.34-.78l-14.68-25.9a1.59,1.59,0,0,1-.15-1.17,1.54,1.54,0,0,1,.73-.93,1.6,1.6,0,0,1,1.17-.15,1.54,1.54,0,0,1,.93.73l14.68,25.9a1.67,1.67,0,0,1,.19.57,1.52,1.52,0,0,1,0,.6,1.38,1.38,0,0,1-.27.54,1.53,1.53,0,0,1-1.21.59Z" transform="translate(0)"/><path class="cls-3" d="M789.94,527.83a1.55,1.55,0,0,1-.78-.21,1.53,1.53,0,0,1-.56-.57l-2.4-4.23a1.66,1.66,0,0,1-.26-.59,1.53,1.53,0,0,1,0-.64,1.39,1.39,0,0,1,.26-.58,1.49,1.49,0,0,1,.48-.42,1.47,1.47,0,0,1,.61-.2,1.5,1.5,0,0,1,.63.07,1.64,1.64,0,0,1,.56.32,1.59,1.59,0,0,1,.37.52l2.39,4.23a1.67,1.67,0,0,1,.19.57,1.51,1.51,0,0,1,0,.6,1.71,1.71,0,0,1-.27.54,1.57,1.57,0,0,1-.46.39,1.43,1.43,0,0,1-.73.2Z" transform="translate(0)"/><path class="cls-6" d="M55.18,517.93a4.81,4.81,0,0,0,6.79-.27L89.33,488a4.81,4.81,0,0,0-.27-6.79l-35.28-24-4.09,4.44-.37-.35a12.7,12.7,0,1,0-17.23,18.67l.38.33-4.53,4.91Zm-20.8-39.75-.38-.34a9.88,9.88,0,1,1,13.41-14.52l.36.36Z" transform="translate(0)"/><path class="cls-3" d="M59.23,493.45a3.42,3.42,0,0,0,1.59,2,3.27,3.27,0,0,0,1.25.4,3.18,3.18,0,0,0,1.3-.1L90.48,488a3.36,3.36,0,0,0,2.31-4.14l-12.28-27.2-4.06,1.15a2.14,2.14,0,0,0-.09-.34,8.93,8.93,0,0,0-1.58-3.08,8.75,8.75,0,0,0-2.64-2.24,9,9,0,0,0-3.29-1.07,9.12,9.12,0,0,0-3.45.28A8.82,8.82,0,0,0,62.31,453a9,9,0,0,0-2.24,2.63,8.76,8.76,0,0,0-1.06,3.3,8.92,8.92,0,0,0,.28,3.45,1.33,1.33,0,0,0,.1.34L54.91,464Zm2.06-31.28a1.62,1.62,0,0,0-.1-.34,6.9,6.9,0,0,1,13.28-3.78,2.21,2.21,0,0,0,.08.35Z" transform="translate(0)"/><path class="cls-3" d="M52.86,527.62a10,10,0,0,1-2-.21,10,10,0,0,1-6.35-4.31l-19-29a1.57,1.57,0,0,1-.2-1.1,1.75,1.75,0,0,1,.23-.57,1.47,1.47,0,0,1,.43-.43l59.24-38.9a1.55,1.55,0,0,1,.66-.24,1.61,1.61,0,0,1,.69.07,1.49,1.49,0,0,1,.6.39,1.55,1.55,0,0,1,.35.61L101.86,496a1.56,1.56,0,0,1,0,1,1.48,1.48,0,0,1-.61.78L58.38,526a9.92,9.92,0,0,1-5.52,1.62Zm-24-33.89L47,521.41a7,7,0,0,0,9.61,2l41.91-27.53-13.4-39.11Z" transform="translate(0)"/><path class="cls-3" d="M100.45,498.05a1.56,1.56,0,0,1-.89-.27,1.52,1.52,0,0,1-.57-.73L83,449.59a1.64,1.64,0,0,1,0-.85,1.56,1.56,0,0,1,.42-.75l10.49-10.22a1.49,1.49,0,0,1,.5-.36,1.42,1.42,0,0,1,.61-.13,1.41,1.41,0,0,1,.61.11,1.5,1.5,0,0,1,.51.35,1.61,1.61,0,0,1,.34.52A1.55,1.55,0,0,1,96,440l-9.78,9.51L101.91,496a1.62,1.62,0,0,1,.09.61,1.53,1.53,0,0,1-.16.6,1.57,1.57,0,0,1-.39.49,1.44,1.44,0,0,1-.54.3,1.75,1.75,0,0,1-.46.05Z" transform="translate(0)"/><path class="cls-3" d="M56.35,539.87a1.58,1.58,0,0,1-1.29-.7,1.58,1.58,0,0,1-.22-1.16,1.54,1.54,0,0,1,.66-1l53.25-35a4,4,0,0,0,1.07-1.05,3.83,3.83,0,0,0,.58-1.38,3.74,3.74,0,0,0,0-1.49,3.67,3.67,0,0,0-.56-1.39,4,4,0,0,0-1-1.07,3.83,3.83,0,0,0-1.38-.58,3.74,3.74,0,0,0-1.49,0,3.67,3.67,0,0,0-1.39.56L59.45,525.24a1.53,1.53,0,0,1-1.13.17,1.52,1.52,0,0,1-1.16-1.77,1.52,1.52,0,0,1,.6-1l45.1-29.59a6.92,6.92,0,0,1,7.6,11.56l-53.26,35a1.49,1.49,0,0,1-.85.23Z" transform="translate(0)"/><path class="cls-10" d="M94.38,517.67a7,7,0,0,0,3.12,2.6,7,7,0,0,0,9.58-5A7,7,0,0,0,96.38,508a7.13,7.13,0,0,0-1.95,1.92,7.2,7.2,0,0,0-1.06,2.52,7,7,0,0,0,1,5.26Z" transform="translate(0)"/><path class="cls-3" d="M93.49,518.25A8.06,8.06,0,0,1,106,508.17a8.08,8.08,0,0,1,1.68,8.8,8.06,8.06,0,0,1-14.16,1.28Zm1.77-1.17a5.94,5.94,0,0,0,9.13,1,5.82,5.82,0,0,0,1.65-3,5.9,5.9,0,0,0-2.47-6.12,5.95,5.95,0,0,0-6.6-.06,6,6,0,0,0-1.71,8.22Z" transform="translate(0)"/><path class="cls-3" d="M97.74,515.46a3,3,0,0,0,4.62.51,3.09,3.09,0,0,0,.84-1.53,3,3,0,0,0-.16-1.74,3,3,0,0,0-1.1-1.35,2.92,2.92,0,0,0-1.67-.52,3,3,0,0,0-2.53,4.63Z" transform="translate(0)"/><path class="cls-3" d="M96.86,516a3.9,3.9,0,0,1-.63-2.22,4,4,0,0,1,2.5-3.66,4.05,4.05,0,0,1,2.31-.2,4,4,0,0,1,2,1.1,4,4,0,0,1,.85,4.35,4,4,0,0,1-1.47,1.79,3.9,3.9,0,0,1-1.46.6,4,4,0,0,1-1.58,0,3.89,3.89,0,0,1-1.45-.62,4,4,0,0,1-1.1-1.13Zm1.77-1.16a1.86,1.86,0,0,0,.86.71,1.91,1.91,0,0,0,1.11.12,1.88,1.88,0,0,0,1-.52,1.91,1.91,0,0,0-.27-2.95,1.91,1.91,0,0,0-1.06-.34,1.94,1.94,0,0,0-1.07.32,2,2,0,0,0-.55.53,2.18,2.18,0,0,0-.3.7,1.9,1.9,0,0,0,.3,1.47Z" transform="translate(0)"/><path class="cls-10" d="M67.25,535.48A7,7,0,1,0,77,525.84a7,7,0,0,0-7.78-.05,7,7,0,0,0-2,9.69Z" transform="translate(0)"/><path class="cls-3" d="M66.37,536.06a8.13,8.13,0,0,1-1.32-4.49,8.06,8.06,0,1,1,12.48,6.81,8.17,8.17,0,0,1-2.92,1.18,8.06,8.06,0,0,1-8.24-3.5Zm1.77-1.16a5.93,5.93,0,0,0,6.08,2.57,5.95,5.95,0,0,0,4.39-8.07,6,6,0,0,0-2.17-2.68,5.86,5.86,0,0,0-3.29-1,6,6,0,0,0-5.87,4.73,6,6,0,0,0,0,2.32,5.77,5.77,0,0,0,.87,2.15Z" transform="translate(0)"/><path class="cls-3" d="M93.59,502.55a1.58,1.58,0,0,1-1.29-.7L69,466.32a1.68,1.68,0,0,1-.26-.56,1.44,1.44,0,0,1,0-.62,1.34,1.34,0,0,1,.23-.58,1.63,1.63,0,0,1,.43-.44,1.8,1.8,0,0,1,.58-.23,1.55,1.55,0,0,1,1.18.28,1.54,1.54,0,0,1,.42.46l23.32,35.53a1.53,1.53,0,0,1,.25.78,1.55,1.55,0,0,1-1.54,1.61Z" transform="translate(0)"/><path class="cls-3" d="M79.17,512a1.58,1.58,0,0,1-1.29-.7L54.55,475.79a1.68,1.68,0,0,1-.26-.56,1.44,1.44,0,0,1,0-.62,1.34,1.34,0,0,1,.23-.58,1.63,1.63,0,0,1,.43-.44,1.8,1.8,0,0,1,.58-.23,1.55,1.55,0,0,1,1.18.28,1.54,1.54,0,0,1,.42.46l23.34,35.53a1.58,1.58,0,0,1,.22,1.16,1.6,1.6,0,0,1-.66,1,1.51,1.51,0,0,1-.85.23Z" transform="translate(0)"/><path class="cls-3" d="M64.75,521.49a1.53,1.53,0,0,1-1.29-.69L40.13,485.26a1.68,1.68,0,0,1-.26-.56,1.44,1.44,0,0,1,0-.62,1.34,1.34,0,0,1,.23-.58,1.63,1.63,0,0,1,.43-.44,1.8,1.8,0,0,1,.58-.23,1.61,1.61,0,0,1,.62,0,1.44,1.44,0,0,1,.56.26,1.54,1.54,0,0,1,.42.46L66,519.11a1.53,1.53,0,0,1,.25.78,1.47,1.47,0,0,1-.19.79,1.45,1.45,0,0,1-.56.59,1.57,1.57,0,0,1-.79.22Z" transform="translate(0)"/><path class="cls-3" d="M33.64,505.29a1.53,1.53,0,0,1-1.48-1.1,1.53,1.53,0,0,1,0-1,1.57,1.57,0,0,1,.61-.76L89.5,465.21a1.62,1.62,0,0,1,.56-.23,1.73,1.73,0,0,1,.6,0,1.36,1.36,0,0,1,.55.24,1.53,1.53,0,0,1,.42.42,1.45,1.45,0,0,1,.23.56,1.4,1.4,0,0,1,0,.61,1.65,1.65,0,0,1-.23.55,1.56,1.56,0,0,1-.43.42L34.48,505A1.52,1.52,0,0,1,33.64,505.29Z" transform="translate(0)"/><path class="cls-3" d="M41.75,517.64a1.53,1.53,0,0,1-1.48-1.1,1.53,1.53,0,0,1,0-1,1.57,1.57,0,0,1,.61-.76l53.48-35.12a1.58,1.58,0,0,1,1.16-.22,1.53,1.53,0,0,1,1.19,1.83,1.51,1.51,0,0,1-.66,1L42.59,517.39a1.56,1.56,0,0,1-.84.25Z" transform="translate(0)"/><path class="cls-3" d="M70.61,533.27a3,3,0,0,0,1.33,1.13,3,3,0,0,0,1.74.2,3,3,0,0,0,1.55-.81,3,3,0,0,0-.42-4.63,3,3,0,0,0-1.67-.51,3,3,0,0,0-1.67.5,3,3,0,0,0-.86,4.12Z" transform="translate(0)"/><path class="cls-3" d="M69.73,533.86a4,4,0,0,1,6.2-5,4,4,0,0,1,.86,4.35A4.09,4.09,0,0,1,75.32,535a3.9,3.9,0,0,1-1.46.6,4,4,0,0,1-1.58,0,4.06,4.06,0,0,1-1.45-.62,4,4,0,0,1-1.1-1.13Zm1.77-1.17a1.86,1.86,0,0,0,.86.71,1.89,1.89,0,0,0,1.1.12,1.87,1.87,0,0,0,1-.52,1.82,1.82,0,0,0,.53-1,1.9,1.9,0,0,0-.8-2,1.82,1.82,0,0,0-1.06-.33,1.86,1.86,0,0,0-1.07.31,1.91,1.91,0,0,0-.53.53,1.77,1.77,0,0,0-.3.69,1.89,1.89,0,0,0,0,.75,2,2,0,0,0,.28.69Z" transform="translate(0)"/><path class="cls-3" d="M91.12,445.48l.32-.26L97.8,439a2.12,2.12,0,0,0-3-3l-6.37,6.24a2.18,2.18,0,0,0-.65,1.4,2.12,2.12,0,0,0,3.3,1.89Z" transform="translate(0)"/><path class="cls-3" d="M99.52,459.58a4.82,4.82,0,0,1-2.69-.75c-3.11-2-4-6.79-2.52-13.43,1.37-6.14,4.61-13.35,9.12-20.3s9.78-12.84,14.84-16.59c5.46-4.06,10.18-5.18,13.29-3.16a1.55,1.55,0,0,1,.74,1,1.49,1.49,0,0,1,0,.63,1.47,1.47,0,0,1-.23.58,1.45,1.45,0,0,1-.44.45,1.64,1.64,0,0,1-.58.23,1.44,1.44,0,0,1-.62,0,1.35,1.35,0,0,1-.57-.26c-1.9-1.23-5.56-.09-9.79,3.05-4.77,3.54-9.77,9.15-14.09,15.8s-7.4,13.5-8.7,19.29c-1.15,5.14-.7,8.95,1.2,10.18,2.56,1.66,11.85-4.28,21.1-15.47a1.57,1.57,0,0,1,.47-.38,1.69,1.69,0,0,1,.58-.17,1.79,1.79,0,0,1,.61.07,1.36,1.36,0,0,1,.52.3,1.43,1.43,0,0,1,.38.47,1.49,1.49,0,0,1,.17.58,1.52,1.52,0,0,1-.07.6,1.62,1.62,0,0,1-.29.53C116.73,449.09,106.19,459.58,99.52,459.58Z" transform="translate(0)"/><path class="cls-6" d="M558.3,308.77a1.92,1.92,0,0,0,.15.74,1.84,1.84,0,0,0,.42.62,2,2,0,0,0,.62.41,1.91,1.91,0,0,0,.74.14l16.15-.08a1.92,1.92,0,0,0,.74-.15,1.84,1.84,0,0,0,.62-.42,1.89,1.89,0,0,0,.42-.62,2.11,2.11,0,0,0,.14-.74l-2.58-16.91H573.3v-.2a5.16,5.16,0,0,0-.32-2,4.94,4.94,0,0,0-1.09-1.72,5,5,0,0,0-1.67-1.17,5.15,5.15,0,0,0-2-.41,5.08,5.08,0,0,0-2,.41,5.17,5.17,0,0,0-2.77,2.89,5.16,5.16,0,0,0-.32,2v.2h-2.67Zm6-16.95v-.21a4,4,0,0,1,2.29-4.23,3.93,3.93,0,0,1,3.33,0,3.93,3.93,0,0,1,2.18,2.53,3.9,3.9,0,0,1,.11,1.7v.2Z" transform="translate(0)"/><path class="cls-3" d="M460.4,44.7a15.34,15.34,0,0,1-1.31,6.54,10,10,0,0,1-3.78,4.34,10.43,10.43,0,0,1-5.63,1.52,10.64,10.64,0,0,1-5.61-1.5,10,10,0,0,1-3.81-4.32,14.79,14.79,0,0,1-1.38-6.44V43.59A15,15,0,0,1,440.23,37a10,10,0,0,1,3.8-4.36,11.13,11.13,0,0,1,11.23,0,10,10,0,0,1,3.8,4.36,15.08,15.08,0,0,1,1.34,6.55Zm-5.27-1.15a10.68,10.68,0,0,0-1.42-6,5,5,0,0,0-8.11,0,10.51,10.51,0,0,0-1.44,6v1.24a10.76,10.76,0,0,0,1.42,6,4.64,4.64,0,0,0,4.1,2.14,4.58,4.58,0,0,0,2.27-.51,4.53,4.53,0,0,0,1.73-1.55,10.76,10.76,0,0,0,1.42-6Z" transform="translate(0)"/><path class="cls-3" d="M488.12,56.76h-5.21L472.78,40.13V56.76h-5.21V31.49h5.21l10.15,16.66V31.49h5.19Z" transform="translate(0)"/><path class="cls-3" d="M501.25,52.58h11.06v4.18H496.05V31.49h5.2Z" transform="translate(0)"/><path class="cls-3" d="M524.21,56.76H519V31.49h5.21Z" transform="translate(0)"/><path class="cls-3" d="M553,56.76h-5.2L537.62,40.13V56.76h-5.2V31.49h5.2l10.16,16.66V31.49H553Z" transform="translate(0)"/><path class="cls-3" d="M576.1,45.81h-10v6.77h11.76v4.18h-17V31.49h16.91v4.22h-11.7v6h10Z" transform="translate(0)"/><path class="cls-3" d="M608.35,50.13a2.74,2.74,0,0,0-.22-1.26,2.65,2.65,0,0,0-.78-1,13.54,13.54,0,0,0-3.75-1.66,26.43,26.43,0,0,1-4.28-1.73c-2.87-1.55-4.3-3.64-4.31-6.26a6.09,6.09,0,0,1,1.16-3.66,7.52,7.52,0,0,1,3.31-2.5,12.23,12.23,0,0,1,4.85-.91,11.49,11.49,0,0,1,4.83,1,7.9,7.9,0,0,1,3.29,2.77A7.31,7.31,0,0,1,613.62,39h-5.21a3.38,3.38,0,0,0-.25-1.47,3.26,3.26,0,0,0-.84-1.23,4.51,4.51,0,0,0-3.07-1,4.77,4.77,0,0,0-3,.81,2.45,2.45,0,0,0-.79.93,2.47,2.47,0,0,0-.27,1.19,2.4,2.4,0,0,0,1.24,2.07,14.72,14.72,0,0,0,3.65,1.56,15.77,15.77,0,0,1,6.48,3.32,6.57,6.57,0,0,1,2,4.92,6.12,6.12,0,0,1-2.48,5.15,11,11,0,0,1-6.69,1.86A13.12,13.12,0,0,1,599.08,56a8.38,8.38,0,0,1-3.65-2.93,7.47,7.47,0,0,1-1.26-4.3h5.23c0,2.79,1.67,4.19,5,4.18a4.88,4.88,0,0,0,2.9-.75,2.39,2.39,0,0,0,.79-.91,2.54,2.54,0,0,0,.26-1.18Z" transform="translate(0)"/><path class="cls-3" d="M641.05,56.76h-5.19V45.93H625.69V56.76h-5.21V31.49h5.21V41.73h10.17V31.49h5.21Z" transform="translate(0)"/><path class="cls-3" d="M669.73,44.7a15.2,15.2,0,0,1-1.32,6.54,10,10,0,0,1-3.77,4.34A10.43,10.43,0,0,1,659,57.1a10.64,10.64,0,0,1-5.61-1.5,10.18,10.18,0,0,1-3.82-4.32,14.92,14.92,0,0,1-1.37-6.44V43.59A15.12,15.12,0,0,1,649.56,37a10,10,0,0,1,3.8-4.36,11.13,11.13,0,0,1,11.23,0,10,10,0,0,1,3.8,4.36,15.08,15.08,0,0,1,1.34,6.55Zm-5.27-1.15a10.58,10.58,0,0,0-1.43-6,5,5,0,0,0-8.1,0,10.51,10.51,0,0,0-1.44,6v1.24a10.76,10.76,0,0,0,1.42,6,4.61,4.61,0,0,0,4.1,2.14,4.48,4.48,0,0,0,2.27-.51A4.53,4.53,0,0,0,663,50.87a10.77,10.77,0,0,0,1.43-6Z" transform="translate(0)"/><path class="cls-3" d="M682.1,47.86v8.9h-5.24V31.49h9.85a11.47,11.47,0,0,1,5,1,7.71,7.71,0,0,1,3.32,3,8.28,8.28,0,0,1,1.17,4.36,7.18,7.18,0,0,1-.6,3.23,7.33,7.33,0,0,1-2,2.63,10.56,10.56,0,0,1-7,2.15Zm0-4.22h4.65a4.6,4.6,0,0,0,3.15-1,3.64,3.64,0,0,0,.85-1.27,3.55,3.55,0,0,0,.24-1.51,4.21,4.21,0,0,0-1.09-3,4,4,0,0,0-1.38-.9,4.07,4.07,0,0,0-1.62-.28h-4.78Z" transform="translate(0)"/><path class="cls-3" d="M708.41,47.86v8.9H703.2V31.49h9.86a11.47,11.47,0,0,1,5,1,7.71,7.71,0,0,1,3.32,3,8.17,8.17,0,0,1,1.16,4.36A7.23,7.23,0,0,1,720,45.71a10.56,10.56,0,0,1-7,2.15Zm0-4.22h4.65a4.6,4.6,0,0,0,3.15-1,3.64,3.64,0,0,0,.85-1.27,3.55,3.55,0,0,0,.24-1.51,4.18,4.18,0,0,0-.25-1.61,3.77,3.77,0,0,0-2.23-2.3,4.06,4.06,0,0,0-1.62-.27h-4.77Z" transform="translate(0)"/><path class="cls-3" d="M735.05,56.76h-5.19V31.49h5.21Z" transform="translate(0)"/><path class="cls-3" d="M763.8,56.76h-5.2L748.46,40.13V56.76h-5.21V31.49h5.21l10.15,16.66V31.49h5.19Z" transform="translate(0)"/><path class="cls-3" d="M791.72,53.56a9,9,0,0,1-4,2.62,16.44,16.44,0,0,1-5.69.92,11.28,11.28,0,0,1-5.76-1.43,9.5,9.5,0,0,1-3.81-4.15,14.63,14.63,0,0,1-1.38-6.41V43.39a15.68,15.68,0,0,1,1.27-6.55A9.51,9.51,0,0,1,776,32.61a12.1,12.1,0,0,1,12.66.68,9.1,9.1,0,0,1,3,6.23h-5a5.11,5.11,0,0,0-1.54-3.17,4.86,4.86,0,0,0-3.27-1,4.65,4.65,0,0,0-4,2,10.53,10.53,0,0,0-1.4,5.93V44.9q0,4,1.51,6a5.2,5.2,0,0,0,2,1.55,5.09,5.09,0,0,0,2.46.45c2,0,3.35-.41,4.19-1.25V47.3h-4.74V43.46h9.94Z" transform="translate(0)"/></g></g></g></g></svg>